<svg width="120" height="120" viewBox="0 0 120 120" fill="none" xmlns="http://www.w3.org/2000/svg">
<path d="M78.8754 9.41271C79.8413 8.22637 81.4091 7.601 82.9252 7.68881C84.4354 7.77369 85.8764 8.64295 86.6393 9.95125C87.1661 10.7747 87.2696 11.7639 87.4715 12.6986C89.3476 21.9395 91.2305 31.1795 93.1066 40.4205C93.774 40.3259 94.4413 40.1815 95.1203 40.2078C96.7505 40.2244 98.3632 40.8937 99.5193 42.0439C100.293 42.7971 100.885 43.7434 101.192 44.7805C101.678 46.3649 101.515 48.1376 100.747 49.6068C100.08 50.9112 98.9427 51.9542 97.612 52.5532C97.0023 52.8264 96.3476 52.9668 95.7008 53.119C97.6052 62.641 99.574 72.1503 101.484 81.6712C101.756 83.4907 100.841 85.4273 99.2393 86.3415C98.0705 87.0146 96.6149 87.2234 95.3203 86.8176C93.8315 86.3581 92.6081 85.1142 92.213 83.602C91.9788 82.679 91.8686 81.7268 91.5661 80.8205C88.0052 79.1737 84.3544 77.722 80.6598 76.402C75.2139 74.4937 69.6325 72.8878 63.9037 72.1103C61.5456 71.7942 59.1622 71.6273 56.7827 71.72C53.8334 71.8146 50.9564 72.52 48.0734 73.0829C48.1934 73.6995 48.5564 74.4527 48.0598 74.9971C46.9622 75.9181 45.8081 76.7737 44.6968 77.68C47.691 81.9376 50.6656 86.2078 53.5593 90.5337C55.5583 93.5424 57.5525 96.562 59.2939 99.7298C60.3388 99.7854 61.451 99.8781 62.3447 100.48C63.0695 100.941 63.5154 101.785 63.53 102.641C63.569 103.691 63.1593 104.693 62.6695 105.601C61.6959 107.322 60.411 108.85 59.0022 110.23C58.3017 110.946 57.4578 111.506 56.57 111.962C55.5681 112.491 54.3456 112.554 53.2803 112.184C51.7983 111.669 50.6081 110.591 49.5359 109.485C49.2725 109.195 48.9525 108.969 48.6529 108.721C47.1203 107.393 45.9417 105.722 44.8315 104.04C42.3778 100.251 40.3622 96.202 38.3905 92.1483C37.2822 89.8127 36.209 87.4615 35.1759 85.0917C34.5778 85.4878 34.0178 85.9571 33.3417 86.2166C32.1739 86.68 30.9066 86.7893 29.6646 86.8712C29.17 86.92 28.6744 86.5454 28.6012 86.0507C28.0041 83.1746 27.4324 80.2937 26.8402 77.4166C25.49 77.6634 24.1495 77.96 22.8032 78.2254C22.1212 78.3503 21.3993 78.5707 20.7212 78.3015C19.7983 78.001 19.1885 77.1561 18.9173 76.2586C17.1641 76.3707 15.3651 76.0254 13.851 75.1132C12.168 74.1268 10.8461 72.5356 10.2051 70.6917C9.99047 70.1064 9.89389 69.4888 9.76218 68.882C9.21193 66.2166 8.67632 63.5493 8.12705 60.8839C7.96608 60.0742 7.76413 59.2654 7.73193 58.4371C7.64022 56.5629 8.23242 54.6742 9.33486 53.161C10.3827 51.7044 11.9251 50.6625 13.61 50.081C13.4393 49.2225 13.29 48.2849 13.7056 47.4693C14.048 46.721 14.7924 46.2068 15.5983 46.0839C24.4724 44.282 33.3446 42.4703 42.2188 40.6693C44.0617 40.2703 45.9271 39.9707 47.7466 39.4703C51.6881 38.3493 55.3329 36.3912 58.7573 34.1708C61.9798 32.0566 65.0188 29.6722 67.9164 27.1327C71.6803 23.8351 75.2247 20.2908 78.5759 16.5756C78.3427 15.4703 78.1135 14.363 77.8969 13.2537C77.6335 11.9122 77.9993 10.4634 78.8754 9.41271ZM81.9856 9.70832C80.9086 9.921 80.0061 10.8186 79.8139 11.9025C79.6978 12.5278 79.892 13.1444 80.0061 13.7542C84.6422 36.561 89.2764 59.3668 93.9144 82.1737C94.0442 82.9112 94.2042 83.7103 94.7788 84.2429C95.8842 85.4576 98.0364 85.2615 99.0071 83.9756C99.5164 83.3259 99.6686 82.4507 99.4842 81.6537C94.7759 58.5005 90.0686 35.3483 85.3613 12.1961C85.2735 11.6273 85.1037 11.0517 84.7115 10.6156C84.0686 9.81856 82.9749 9.49076 81.9856 9.70832ZM75.7027 22.5288C70.4315 27.8234 64.7759 32.8078 58.4071 36.7512C54.8061 38.9503 50.9515 40.8468 46.8081 41.7532C46.2081 41.8273 45.6237 41.9893 45.0305 42.0986C40.2207 43.082 35.41 44.0605 30.5993 45.0351C27.0324 45.7688 23.4568 46.4634 19.8978 47.2293C18.3485 47.4907 16.8217 47.8722 15.2724 48.1298C15.4227 49.1483 15.6627 50.1522 15.8607 51.1629C17.5739 59.639 19.3085 68.1112 21.0158 76.5883C22.8149 76.199 24.6276 75.8722 26.4246 75.4703C26.3446 74.9825 26.2988 74.4898 26.1866 74.0078C26.0685 73.4439 25.8695 72.8771 25.9495 72.2937C26.0129 71.9142 26.3573 71.6459 26.7251 71.5903C33.1339 70.2888 39.5427 68.9864 45.9505 67.6829C46.449 67.5542 46.9905 67.9073 47.0968 68.4029C47.3134 69.3112 47.4442 70.2381 47.6842 71.1415C48.8832 70.9288 50.0744 70.6751 51.2676 70.4293C50.731 67.56 50.1115 64.7054 49.5427 61.842C48.6325 57.359 47.7134 52.8761 46.8149 48.3912C46.6539 47.7649 47.2432 47.2117 47.8412 47.199C48.2861 47.2712 48.6793 47.5873 48.7407 48.0527C50.2373 55.3834 51.7222 62.7171 53.2139 70.0478C56.2364 69.6098 59.3105 69.6088 62.3456 69.92C68.2383 70.5278 73.9954 72.0498 79.6003 73.9259C83.5203 75.2468 87.37 76.7707 91.1535 78.439C87.1213 58.6342 83.0939 38.8283 79.0715 19.0215C77.9505 20.1922 76.8393 21.3727 75.7027 22.5288ZM13.8022 52.0303C12.9027 52.5688 11.9573 53.0829 11.2832 53.9073C10.0422 55.3395 9.45096 57.3386 9.82462 59.2078C10.4383 62.2332 11.0549 65.2576 11.6754 68.282C11.8295 68.9737 11.9222 69.6868 12.2022 70.3444C12.8744 71.9951 14.2861 73.3132 15.9583 73.9142C16.7251 74.202 17.5476 74.2712 18.3495 74.4059C16.8422 66.9454 15.3134 59.4898 13.8022 52.0303ZM28.051 73.3259C28.8354 77.1844 29.5983 81.0488 30.4168 84.9005C31.4207 84.6517 32.5339 84.5961 33.3671 83.9132C37.7193 80.6683 41.9593 77.2751 46.2276 73.922C45.9388 72.5493 45.6725 71.1717 45.3768 69.8C39.6032 70.9815 33.8246 72.1454 28.051 73.3259ZM36.8032 83.842C37.8188 86.1649 38.8588 88.4781 39.9456 90.7678C42.0715 95.1785 44.251 99.5854 46.9739 103.665C47.9807 105.1 49.0227 106.559 50.4588 107.599C51.3505 108.43 52.1466 109.396 53.2344 109.99C53.8978 110.376 54.7368 110.588 55.4734 110.277C56.2568 109.912 56.9886 109.426 57.6042 108.816C58.329 108.106 59.012 107.352 59.6354 106.553C60.2959 105.684 60.9378 104.781 61.329 103.755C61.53 103.231 61.5661 102.666 61.6256 102.114C60.7466 101.879 59.8442 101.695 58.9291 101.747C58.5212 101.795 58.0588 101.662 57.8451 101.286C56.7827 99.24 55.571 97.2741 54.3271 95.3337C53.13 93.5063 51.9427 91.6712 50.7144 89.8654C50.0051 88.8859 49.3847 87.8439 48.6617 86.8761C46.8627 84.1893 44.9632 81.5698 43.129 78.9054C41.0276 80.56 38.9124 82.1971 36.8032 83.842Z" fill="#101010"/>
<path d="M81.9858 9.70829C82.975 9.49073 84.0687 9.81853 84.7116 10.6156C85.1038 11.0517 85.2736 11.6273 85.3614 12.1961C90.0687 35.3483 94.776 58.5005 99.4843 81.6536C99.6687 82.4507 99.5165 83.3258 99.0072 83.9756C98.0365 85.2614 95.8843 85.4575 94.7789 84.2429C94.2043 83.7102 94.0443 82.9112 93.9145 82.1736C89.2765 59.3668 84.6424 36.561 80.0063 13.7541C79.8921 13.1444 79.698 12.5278 79.8141 11.9024C80.0063 10.8185 80.9087 9.92097 81.9858 9.70829Z" fill="#FFA800"/>
<path d="M45.0305 42.0985C45.6237 41.9893 46.2081 41.8273 46.8081 41.7532C47.1427 43.5707 47.4988 45.3834 47.8413 47.199C47.2432 47.2117 46.6539 47.7649 46.8149 48.3912C47.7135 52.8761 48.6325 57.359 49.5427 61.842C50.1115 64.7054 50.731 67.56 51.2676 70.4293C50.0744 70.6751 48.8832 70.9288 47.6842 71.1415C47.4442 70.2381 47.3135 69.3112 47.0969 68.4029C46.9905 67.9073 46.4491 67.5541 45.9505 67.6829C39.5427 68.9863 33.1339 70.2888 26.7251 71.5902C26.3573 71.6459 26.013 71.9142 25.9495 72.2937C25.8695 72.8771 26.0686 73.4439 26.1866 74.0078C26.2988 74.4898 26.3447 74.9824 26.4247 75.4702C24.6276 75.8722 22.8149 76.199 21.0159 76.5883C19.3086 68.1112 17.5739 59.639 15.8608 51.1629C15.6627 50.1522 15.4227 49.1483 15.2725 48.1298C16.8217 47.8722 18.3486 47.4907 19.8978 47.2293C23.4569 46.4634 27.0325 45.7688 30.5993 45.0351C35.41 44.0605 40.2208 43.082 45.0305 42.0985Z" fill="#FFA800"/>
</svg>
