<svg width="120" height="119" viewBox="0 0 120 119" fill="none" xmlns="http://www.w3.org/2000/svg">
<path d="M97.0118 23.989C99.4493 30.2901 100.844 37.0975 100.844 44.2375C100.844 75.6247 75.0143 101.077 43.1693 101.077C35.9168 101.077 29.013 99.7018 22.623 97.296C32.2118 107.219 45.7155 113.435 60.7193 113.435C89.8005 113.435 113.377 90.2003 113.377 61.5368C113.381 46.7542 107.073 33.4388 97.0118 23.989Z" fill="#FFA800"/>
<path d="M54.7923 9.4996C63.7185 8.3388 72.9398 9.41478 81.3275 12.6476C94.9062 17.836 106.105 28.717 111.541 42.0359C116.263 53.433 116.74 66.4757 112.845 78.1757C109.911 87.0671 104.518 95.1563 97.4168 101.353C90.3521 107.535 81.6201 111.87 72.3422 113.659C59.4496 116.22 45.6127 113.904 34.3627 107.169C27.7529 103.248 22.0185 97.9117 17.639 91.657C13.5619 85.8191 10.7095 79.1572 9.32258 72.2021C7.26192 62.1693 8.2775 51.5501 12.1849 42.0698C14.3882 36.7093 17.4668 31.6905 21.3226 27.3284C21.6275 27.0497 21.9004 26.6014 22.38 26.662C23.3119 26.5335 23.8775 27.8664 23.1939 28.465C20.5234 31.4893 18.1996 34.8166 16.3209 38.3742C11.4865 47.4158 9.56356 57.926 10.8423 68.0654C12.0595 78.2193 16.6013 87.8838 23.4472 95.5392C28.6382 93.981 33.9349 92.762 39.2832 91.8654C34.3357 83.0322 31.5029 73.0163 31.3775 62.9109C26.5824 62.9181 21.7849 62.9109 16.9898 62.9181C16.0972 62.9375 15.6373 61.7307 16.2718 61.1321C16.7537 60.5893 17.5578 60.851 18.1923 60.7904C22.5816 60.725 26.9709 60.8243 31.3603 60.7856C31.53 50.7237 34.2423 40.7151 39.2193 31.928C36.6201 31.4021 33.9963 30.9732 31.4316 30.3019C30.2218 29.9771 30.7603 27.9561 31.9923 28.2759C34.7857 28.8769 37.589 29.444 40.4045 29.936C42.8709 25.9931 45.7554 22.3023 49.0283 18.9774C49.5521 18.4952 50.0168 17.693 50.8382 17.7633C51.7504 17.7948 52.1513 19.1059 51.3963 19.6293C48.1652 22.8863 45.2193 26.4245 42.7578 30.2825C48.7332 31.1428 54.7677 31.5766 60.8045 31.659C60.7922 24.8396 60.8045 18.0202 60.7996 11.2008C49.7586 11.3801 38.8062 15.2042 30.1652 21.9873C29.7324 22.4162 28.9308 22.5519 28.5054 22.0454C28.0554 21.6116 28.0972 20.8047 28.6308 20.4557C36.1111 14.5281 45.2734 10.6967 54.7923 9.4996ZM65.9218 11.3123C67.0947 12.2792 68.339 13.1589 69.5144 14.121C74.9783 18.5703 79.7537 23.8775 83.3808 29.8875C88.5373 29.066 93.6349 27.9124 98.6439 26.456C94.7562 22.5543 90.2291 19.2658 85.2865 16.7746C79.2914 13.6751 72.6496 11.9254 65.9218 11.3123ZM62.9636 12.0102C62.9365 18.5606 62.9562 25.111 62.9537 31.659C69.0201 31.5693 75.0816 31.1234 81.084 30.2607C76.4636 22.9881 70.2226 16.7431 62.9636 12.0102ZM84.6004 31.9062C89.6144 40.6885 92.3685 50.714 92.5308 60.7904C99.4529 60.8025 106.375 60.7783 113.297 60.8025C113.046 48.8722 108.367 37.0776 100.262 28.2032C95.1373 29.7978 89.8824 30.9392 84.6004 31.9062ZM62.9537 33.8012C62.9488 42.7871 62.9513 51.7754 62.9513 60.7637C72.0816 60.8074 81.2119 60.7928 90.3398 60.7904C90.2193 50.8061 87.3545 40.9114 82.3209 32.26C75.9127 33.2148 69.4382 33.7649 62.9537 33.8012ZM39.2857 36.5203C35.6513 44.0739 33.6791 52.4031 33.5586 60.7613C42.6398 60.7953 51.7234 60.7977 60.8045 60.7928C60.7922 51.7997 60.8045 42.8041 60.7996 33.8109C54.3767 33.7261 47.9488 33.2778 41.607 32.2527C40.6824 33.5904 40.0455 35.0905 39.2857 36.5203ZM92.5283 62.9496C92.3931 73.0454 89.5406 83.0322 84.63 91.8727C89.8947 92.796 95.1201 93.9689 100.23 95.5344C108.359 86.6697 113.061 74.8581 113.277 62.9133C106.36 62.9351 99.4431 62.8697 92.5283 62.9496ZM33.5439 62.9109C33.7013 72.9073 36.539 82.8262 41.5947 91.4873C47.9463 90.5131 54.3718 90.0357 60.7996 89.9582C60.7972 80.9456 60.8045 71.9307 60.7947 62.9181C51.7111 62.9084 42.6275 62.9206 33.5439 62.9109ZM62.9513 62.9133C62.9513 71.9307 62.9488 80.9456 62.9537 89.963C69.4332 90.0236 75.9103 90.5301 82.3136 91.514C87.3447 82.8359 90.2193 72.917 90.3472 62.9109C81.2168 62.9181 72.084 62.9133 62.9513 62.9133ZM42.7972 93.4721C47.4201 100.662 53.5627 106.895 60.7677 111.594C60.8193 105.102 60.7996 98.6072 60.7947 92.115C54.7726 92.1538 48.7578 92.6239 42.7972 93.4721ZM62.9513 92.1126C62.9759 98.6484 62.8972 105.184 62.9931 111.718C66.4996 109.36 69.839 106.74 72.8021 103.738C75.9644 100.657 78.6718 97.158 81.1037 93.5012C75.0963 92.6215 69.025 92.1659 62.9513 92.1126ZM25.1193 97.2647C26.0832 98.125 26.9586 99.0798 27.957 99.9037C36.266 107.171 47.0267 111.597 58.0972 112.425C56.0365 110.903 53.9881 109.357 52.0775 107.654C47.5529 103.638 43.6603 98.9417 40.4759 93.8307C35.2947 94.6789 30.1677 95.8349 25.1193 97.2647ZM70.1218 109.113C68.7472 110.278 67.2742 111.325 65.8652 112.45C67.8865 112.159 69.9275 111.972 71.9291 111.56C82.0185 109.592 91.439 104.518 98.6218 97.2719C93.6324 95.8421 88.5545 94.7153 83.4324 93.8477C79.8496 99.5863 75.3447 104.76 70.1218 109.113Z" fill="#101010"/>
</svg>
