<svg width="415" height="356" viewBox="0 0 415 356" fill="none" xmlns="http://www.w3.org/2000/svg">
<path d="M274.861 172.162C274.861 172.162 263.992 180.629 261.818 186.235C259.644 191.841 255.411 198.934 255.411 198.934L264.793 210.261L267.653 208.545C267.653 208.545 275.662 197.447 277.721 186.349C279.666 175.251 276.234 170.103 274.861 172.162Z" fill="#FFA800" stroke="#222222" stroke-miterlimit="10" stroke-linejoin="round"/>
<path d="M262.39 242.753C262.39 242.753 256.097 285.428 257.242 305.107C258.386 324.785 263.076 354.532 263.076 354.532H342.019C342.019 354.532 349.799 310.255 349.799 284.055C349.799 257.855 350.028 252.364 350.028 252.364C350.028 252.364 328.29 256.597 316.277 255.681C304.378 254.652 262.39 242.753 262.39 242.753Z" fill="white" stroke="#222222" stroke-miterlimit="10" stroke-linejoin="round"/>
<path d="M267.882 284.17L272.801 289.547L278.865 354.189" stroke="#222222" stroke-miterlimit="10" stroke-linejoin="round"/>
<path d="M307.468 261.974C307.468 261.974 307.125 269.182 310.672 273.644C314.218 278.106 319.595 279.479 319.595 279.479" stroke="#222222" stroke-miterlimit="10" stroke-linejoin="round"/>
<path d="M321.655 304.077L321.998 353.731" stroke="#222222" stroke-miterlimit="10" stroke-linejoin="round"/>
<path d="M321.54 265.406L321.654 298.356" stroke="#222222" stroke-miterlimit="10" stroke-linejoin="round"/>
<path d="M267.768 274.903L267.081 279.937" stroke="#222222" stroke-miterlimit="10" stroke-linejoin="round"/>
<path d="M270.171 254.194L268.226 271.013" stroke="#222222" stroke-miterlimit="10" stroke-linejoin="round"/>
<path d="M298.544 128.229C298.544 128.229 290.878 137.725 287.675 144.818C284.357 151.912 273.03 167.929 271.085 179.37C269.14 190.811 266.738 207.057 266.738 207.057C266.738 207.057 260.216 244.584 261.589 247.329C262.962 250.075 293.395 259.571 307.468 261.974C321.655 264.377 332.752 264.72 339.274 261.974C345.795 259.228 356.664 256.025 355.634 250.533C354.49 245.041 353.232 239.435 353.232 239.435C353.232 239.435 350.829 176.052 350.829 170.103C350.829 164.153 350.6 138.869 345.909 128.572C341.333 118.275 339.159 115.758 339.159 115.758L298.544 128.229Z" fill="#FFA800" stroke="#222222" stroke-miterlimit="10" stroke-linejoin="round"/>
<path d="M306.668 112.669L296.6 116.216L289.277 132.005L298.545 128.229L302.091 130.632L311.015 122.738L306.668 112.669Z" fill="white" stroke="#222222" stroke-miterlimit="10" stroke-linejoin="round"/>
<path d="M302.662 38.7604C302.662 38.7604 296.141 46.4259 294.653 51.1167C293.166 55.6931 292.136 59.6974 286.988 61.8712C281.725 64.045 277.721 63.3586 277.721 66.2188C277.721 69.0791 282.297 72.7402 282.297 72.7402C282.297 72.7402 281.382 89.3296 282.64 94.2492C283.899 99.1689 286.645 100.427 288.475 100.427C290.306 100.427 301.404 99.1689 301.404 99.1689L308.154 118.619L335.612 107.521L332.866 92.0754C332.866 92.0754 339.616 81.3209 340.303 76.0581C340.875 70.7952 335.955 54.7778 325.544 46.5403C315.018 38.1884 307.01 36.5866 302.662 38.7604Z" fill="white" stroke="#222222" stroke-miterlimit="10" stroke-linejoin="round"/>
<path d="M288.018 78.6898C288.018 78.6898 293.052 80.7492 298.086 76.7449" stroke="#222222" stroke-miterlimit="10" stroke-linejoin="round"/>
<path d="M301.403 99.169L311.7 97.6816L303.234 103.631L301.403 99.169Z" fill="#222222" stroke="#222222" stroke-miterlimit="10" stroke-linejoin="round"/>
<path d="M305.259 62.105C306.809 56.5678 304.366 51.0432 299.803 49.7656C295.239 48.4879 290.283 51.941 288.733 57.4783C287.182 63.0156 289.625 68.5401 294.189 69.8178C298.753 71.0954 303.709 67.6423 305.259 62.105Z" stroke="#222222" stroke-miterlimit="10" stroke-linejoin="round"/>
<path d="M305.294 63.1301L323.027 68.6218" stroke="#222222" stroke-miterlimit="10" stroke-linejoin="round"/>
<path d="M297.285 60.6127C296.827 62.1 296.027 63.1297 295.455 62.9009C294.883 62.6721 294.768 61.4136 295.226 59.9262C295.683 58.4389 296.484 57.4092 297.056 57.638C297.628 57.7524 297.743 59.1254 297.285 60.6127Z" fill="#222222"/>
<path d="M297.285 51.4598C297.285 51.4598 300.489 51.3454 301.862 53.8624" stroke="#222222" stroke-miterlimit="10" stroke-linejoin="round"/>
<path d="M326.689 21.599C326.689 21.599 323.028 12.675 309.184 14.8488C295.34 17.0226 296.828 37.6164 301.519 44.7098C306.095 51.8032 317.536 59.4686 317.536 59.4686C317.536 59.4686 318.108 63.473 319.367 66.5621C320.625 69.6511 323.028 68.7359 323.028 68.7359C323.028 68.7359 327.375 73.0834 329.206 81.0921C331.036 89.1008 327.718 94.0205 336.871 95.851C346.138 97.6816 351.63 94.5925 353.804 89.6729C355.978 84.7533 357.465 80.7489 357.808 79.4904C358.152 78.2319 373.254 68.0494 371.08 52.3752C368.906 36.7011 358.152 26.1754 346.711 22.5143C335.27 18.8531 326.689 21.599 326.689 21.599Z" fill="#222222" stroke="#222222" stroke-miterlimit="10" stroke-linejoin="round"/>
<path d="M319.023 72.969C319.023 72.969 326.689 60.3839 330.693 65.8756C334.698 71.3673 334.354 77.8886 329.206 80.9777C323.943 84.0668 319.71 83.7235 319.71 83.7235" fill="white"/>
<path d="M319.023 72.969C319.023 72.969 326.689 60.3839 330.693 65.8756C334.698 71.3673 334.354 77.8886 329.206 80.9777C323.943 84.0668 319.71 83.7235 319.71 83.7235" stroke="#222222" stroke-miterlimit="10" stroke-linejoin="round"/>
<path d="M364.215 36.3578C364.215 36.3578 355.864 31.0949 359.639 16.336C363.3 1.57714 376 -0.939867 375.313 3.06448C374.741 7.06883 371.309 11.9884 371.309 11.9884C371.309 11.9884 394.763 0.318629 404.602 8.55614C414.441 16.9081 416.272 37.8451 410.094 44.5953C403.916 51.3455 386.411 48.2564 386.411 48.2564C386.411 48.2564 392.932 52.604 386.411 53.7481C380.004 55.121 366.046 44.9385 364.215 36.3578Z" fill="#222222" stroke="#222222" stroke-miterlimit="10" stroke-linejoin="round"/>
<path d="M336.3 103.173L300.489 118.733L301.29 137.954L342.02 116.216L336.3 103.173Z" fill="white" stroke="#222222" stroke-miterlimit="10" stroke-linejoin="round"/>
<path d="M318.108 136.581C318.108 136.581 314.79 138.755 309.641 152.026C304.493 165.298 295.454 214.036 295.226 215.638C294.997 217.24 282.412 224.562 279.437 225.477C276.462 226.278 236.533 224.105 236.533 224.105C236.533 224.105 233.559 224.905 233.559 229.596C233.559 234.287 234.359 236.69 235.961 237.719C237.563 238.863 242.711 237.948 242.711 237.948C242.711 237.948 282.64 254.766 295.683 255.567C308.726 256.368 325.087 257.741 333.21 242.296C341.333 226.85 351.744 181.086 351.744 159.692C351.744 138.183 348.998 123.309 334.583 127.085" fill="#FFA800"/>
<path d="M318.108 136.581C318.108 136.581 314.79 138.755 309.641 152.026C304.493 165.298 295.454 214.036 295.226 215.638C294.997 217.24 282.412 224.562 279.437 225.477C276.462 226.278 236.533 224.105 236.533 224.105C236.533 224.105 233.559 224.905 233.559 229.596C233.559 234.287 234.359 236.69 235.961 237.719C237.563 238.863 242.711 237.948 242.711 237.948C242.711 237.948 282.64 254.766 295.683 255.567C308.726 256.368 325.087 257.741 333.21 242.296C341.333 226.85 351.744 181.086 351.744 159.692C351.744 138.183 348.998 123.309 334.583 127.085" stroke="#222222" stroke-miterlimit="10" stroke-linejoin="round"/>
<path d="M297.171 215.981C297.171 215.981 302.663 207.858 304.264 197.79" stroke="#222222" stroke-miterlimit="10" stroke-linejoin="round"/>
<path d="M241.911 211.062C241.911 211.062 253.123 214.608 255.297 214.608C257.471 214.608 260.217 211.748 261.361 208.545C262.505 205.341 264.221 205.57 263.306 203.854C262.505 202.138 257.356 196.989 255.183 197.676C253.009 198.362 250.263 202.366 249.805 203.053C249.462 203.739 241.911 211.062 241.911 211.062Z" fill="white" stroke="#222222" stroke-miterlimit="10" stroke-linejoin="round"/>
<path d="M242.254 198.248C242.254 198.248 235.161 198.591 234.818 199.392C234.475 200.193 232.644 210.604 233.445 211.977C234.246 213.35 235.161 213.35 235.962 211.519C236.763 209.689 238.365 203.167 238.365 203.167L242.14 202.71L242.254 198.248Z" fill="white" stroke="#222222" stroke-miterlimit="10" stroke-linejoin="round"/>
<path d="M241.797 194.358C241.797 194.358 238.594 200.422 238.365 203.168C238.25 205.913 238.708 213.693 239.738 214.265C240.767 214.837 242.484 214.952 242.598 213.922C242.712 212.892 242.598 206.142 242.598 206.142C242.598 206.142 245.801 199.506 246.374 197.333C246.831 195.044 242.941 192.985 241.797 194.358Z" fill="white" stroke="#222222" stroke-miterlimit="10" stroke-linejoin="round"/>
<path d="M246.373 197.333C246.373 197.333 242.139 204.655 242.597 206.142C243.055 207.629 242.483 214.952 243.055 215.524C243.741 215.981 244.771 215.981 245.572 215.181C246.373 214.38 246.373 211.748 246.716 210.719C247.059 209.689 247.173 205.913 247.173 205.913C247.173 205.913 252.894 201.108 253.123 198.477C253.466 195.731 248.432 194.587 246.373 197.333Z" fill="white" stroke="#222222" stroke-miterlimit="10" stroke-linejoin="round"/>
<path d="M257.928 197.447C257.928 197.447 262.161 200.536 263.42 202.939C264.564 205.342 265.594 207.859 264.793 210.376C263.992 212.893 258.729 215.181 258.157 218.041C257.699 220.901 254.61 220.558 254.61 217.583C254.61 214.494 257.699 207.515 257.699 207.515" fill="white"/>
<path d="M257.928 197.447C257.928 197.447 262.161 200.536 263.42 202.939C264.564 205.342 265.594 207.859 264.793 210.376C263.992 212.893 258.729 215.181 258.157 218.041C257.699 220.901 254.61 220.558 254.61 217.583C254.61 214.494 257.699 207.515 257.699 207.515" stroke="#222222" stroke-miterlimit="10" stroke-linejoin="round"/>
<path d="M257.815 203.053L251.408 211.405C251.408 211.405 250.95 215.524 249.921 216.668C248.891 217.812 247.404 217.812 246.488 217.011C245.687 216.211 248.204 207.859 247.518 205.914C246.831 204.083 253.467 198.477 253.467 198.477C253.467 198.477 254.497 196.303 256.556 196.761C258.616 197.218 259.302 200.193 259.302 200.193" fill="white"/>
<path d="M257.815 203.053L251.408 211.405C251.408 211.405 250.95 215.524 249.921 216.668C248.891 217.812 247.404 217.812 246.488 217.011C245.687 216.211 248.204 207.859 247.518 205.914C246.831 204.083 253.467 198.477 253.467 198.477C253.467 198.477 254.497 196.303 256.556 196.761C258.616 197.218 259.302 200.193 259.302 200.193" stroke="#222222" stroke-miterlimit="10" stroke-linejoin="round"/>
<path d="M180.358 158.204L193.63 215.409L243.169 226.278L231.271 164.955L180.358 158.204Z" fill="white" stroke="#222222" stroke-miterlimit="10" stroke-linejoin="round"/>
<path d="M243.17 226.278L279.552 225.478L241.683 217.354L243.17 226.278Z" fill="#222222" stroke="#222222" stroke-miterlimit="10" stroke-linejoin="round"/>
<path d="M196.604 213.579C196.604 213.579 198.321 221.931 199.35 223.075C200.38 224.219 207.359 225.248 207.359 225.248L196.604 213.579Z" fill="white" stroke="#222222" stroke-miterlimit="10" stroke-linejoin="round"/>
<path d="M209.876 226.164C209.876 226.164 202.897 223.075 202.211 222.617C201.524 222.16 196.719 214.952 196.605 213.579C196.49 212.206 197.634 212.092 199.122 212.892C200.609 213.693 203.355 217.469 203.355 217.469L206.101 221.702L209.876 226.164Z" fill="white" stroke="#222222" stroke-miterlimit="10" stroke-linejoin="round"/>
<path d="M213.079 219.871C213.079 219.871 210.677 219.986 209.19 218.155C206.787 215.295 204.613 209.689 203.583 208.43C201.867 206.371 201.524 211.176 202.897 214.38C204.27 217.583 205.643 222.388 208.045 224.105C210.448 225.821 215.139 231.084 216.855 231.427C218.571 231.77 233.444 231.312 233.444 231.312C233.444 231.312 232.987 229.139 233.444 227.422C233.902 225.706 234.589 224.562 234.589 224.562L213.079 219.871Z" fill="white" stroke="#222222" stroke-miterlimit="10" stroke-linejoin="round"/>
<path d="M218 229.253C218 229.253 213.767 223.304 213.767 221.816C213.767 220.329 214.453 207.858 216.284 209.117C218.114 210.261 218.343 212.664 218.343 215.181C218.343 217.698 218.801 221.588 218.801 221.588L221.661 224.791" fill="white"/>
<path d="M218 229.253C218 229.253 213.767 223.304 213.767 221.816C213.767 220.329 214.453 207.858 216.284 209.117C218.114 210.261 218.343 212.664 218.343 215.181C218.343 217.698 218.801 221.588 218.801 221.588L221.661 224.791" stroke="#222222" stroke-miterlimit="10" stroke-linejoin="round"/>
<path d="M5.99722 275.132C8.62865 276.276 15.15 276.161 15.15 276.161C15.2644 276.161 13.7771 271.928 13.6627 271.585C12.1754 268.61 7.71336 263.691 4.05225 264.148C1.42082 264.491 -0.0665102 267.123 0.505539 269.64C1.07759 272.271 3.70902 274.102 5.99722 275.132Z" fill="#222222"/>
<path d="M8.17052 294.009C10.9164 294.467 16.7513 292.75 17.2089 292.636C18.1242 295.84 19.3827 299.157 20.7556 302.361C21.5565 304.191 22.4718 306.022 23.2726 307.853C22.7006 307.052 22.2429 306.365 22.1285 306.251C19.9548 303.734 14.2343 300.187 10.9164 301.674C8.39934 302.704 7.71289 305.679 8.9714 307.967C10.2299 310.255 13.319 311.399 15.7216 311.742C18.2386 312.086 23.1582 310.713 24.5311 310.37C24.8744 311.056 25.2176 311.743 25.5608 312.429C27.277 315.747 28.9931 319.179 30.4805 322.497C31.0525 323.641 31.5102 324.9 32.0822 326.044C31.6246 325.357 31.1669 324.785 31.1669 324.671C28.9931 322.154 23.2726 318.607 19.9547 320.094C17.4377 321.124 16.7513 324.099 18.0098 326.387C19.2683 328.675 22.3574 329.819 24.76 330.163C27.1626 330.506 31.739 329.362 33.3407 328.904C33.7983 330.162 34.256 331.307 34.7136 332.565C34.9425 333.366 35.2857 334.167 35.5145 334.968C35.7433 335.769 35.9721 336.569 36.201 337.485C36.5442 339.086 37.0018 340.688 37.3451 342.29C37.5739 343.32 37.8027 344.464 38.0315 345.493C37.4595 344.349 36.4298 342.061 36.3154 341.832C34.5992 338.972 29.4508 334.625 25.9041 335.54C23.2726 336.226 22.1285 338.972 23.0438 341.375C23.9591 343.892 26.8193 345.379 29.1075 346.18C31.739 346.981 37.4595 346.294 38.2603 346.18C38.6036 347.896 38.9468 349.612 39.1756 351.214C39.4044 352.358 39.5188 353.502 39.7477 354.646H42.0359C41.807 353.388 41.5782 352.129 41.3494 350.871C41.0062 349.155 40.5485 347.21 40.2053 345.379C40.6629 345.15 43.0656 344.235 45.2393 342.976C47.1843 345.036 51.9895 347.438 52.676 347.782C51.9895 349.383 51.3031 350.985 50.731 352.472C50.3878 353.273 50.0446 353.96 49.7013 354.761H52.1039C52.3328 354.303 52.4472 353.845 52.676 353.388C53.3625 351.786 54.0489 349.955 54.7354 348.125C55.4218 348.239 61.1423 349.383 63.7738 348.811C66.1764 348.239 69.151 346.866 70.1807 344.464C71.2104 342.176 70.2951 339.201 67.7781 338.4C64.2314 337.256 58.8541 341.26 56.9092 343.892C56.7948 344.006 55.7651 345.951 55.0786 347.095C55.3074 346.294 55.6506 345.608 55.8795 344.807C56.4515 343.32 56.9092 341.718 57.4812 340.116C57.71 339.315 57.9388 338.514 58.1677 337.599C58.3965 336.798 58.6253 335.883 58.8541 334.968C59.3118 332.908 59.7694 330.849 60.1126 328.79C61.4856 329.247 66.2908 330.963 68.6934 330.735C71.2104 330.506 74.2995 329.705 75.6724 327.417C77.0453 325.243 76.5877 322.268 74.1851 321.01C70.8672 319.294 64.9179 322.497 62.6297 324.785C62.5152 324.9 61.0279 326.845 60.227 327.874C60.4559 326.616 60.5703 325.357 60.7991 324.099C61.2567 320.438 61.6 316.662 61.9432 312.887C62.0576 311.742 62.172 310.598 62.2864 309.454C62.7441 309.683 68.4646 311.743 71.2104 311.514C73.7274 311.285 76.8165 310.484 78.1894 308.196C79.5623 306.022 79.1047 303.047 76.7021 301.789C73.3842 300.073 67.4349 303.276 65.1467 305.564C64.9179 305.793 62.8585 308.425 62.2864 309.111C62.5152 306.594 62.8585 304.077 63.2017 301.674C63.7738 298.242 64.4602 295.039 65.3755 291.835C65.6043 291.95 71.4392 294.123 74.2995 293.895C76.8165 293.666 79.9056 292.865 81.2785 290.577C82.6514 288.403 82.1938 285.428 79.7912 284.17C76.4733 282.454 70.5239 285.657 68.2357 287.945C68.0069 288.174 65.7187 291.034 65.3755 291.606C65.3755 291.378 65.4899 291.263 65.4899 291.034C66.5196 287.716 67.8925 284.627 69.3798 281.767C70.1807 280.165 71.096 278.564 72.0113 277.076C73.041 277.648 77.9606 279.937 80.4776 280.051C82.9946 280.165 86.0837 279.593 87.7998 277.534C89.4016 275.589 89.2872 272.5 86.999 271.013C83.9099 268.953 77.6174 271.47 75.1003 273.53C74.9859 273.644 73.613 274.903 72.6977 275.932C73.1554 275.246 73.4986 274.559 73.9562 273.987C75.558 271.699 77.0453 269.64 78.5326 267.809C79.3335 266.779 80.1344 265.864 80.8208 265.063C82.0793 265.063 87.3422 264.834 89.6304 263.805C91.9186 262.775 94.4356 260.83 95.0077 258.199C95.5797 255.682 93.978 253.05 91.3465 252.821C87.6854 252.478 83.2234 257.512 81.8505 260.487C81.7361 260.716 80.3632 265.063 80.4776 265.063H80.592C79.9056 265.864 79.1047 266.665 78.4182 267.695C76.9309 269.525 75.3292 271.47 73.7274 273.758C72.1257 276.047 70.4095 278.678 68.9222 281.538C67.3205 284.399 65.9475 287.488 64.8034 290.805V290.92C64.8034 289.776 64.8034 286.801 64.689 286.572C64.2314 283.254 61.4856 277.191 57.8244 276.504C55.193 276.047 52.9048 278.106 52.7904 280.623C52.5616 283.254 54.5065 285.886 56.3371 287.488C58.3965 289.318 64.2314 291.149 64.689 291.263C63.6593 294.467 62.8585 297.899 62.2864 301.331C61.9432 303.276 61.6 305.336 61.3711 307.395C61.3711 306.48 61.3711 305.564 61.3711 305.45C60.9135 302.132 58.1677 296.068 54.5065 295.382C51.8751 294.924 49.5869 296.984 49.4725 299.501C49.2437 302.132 51.1887 304.764 53.0192 306.365C54.8498 308.081 59.7694 309.683 61.1423 310.141C61.0279 310.942 60.9135 311.743 60.7991 312.429C60.3414 316.204 59.8838 319.866 59.4262 323.527C59.1974 324.785 58.9685 326.044 58.7397 327.302C58.7397 326.501 58.7397 325.815 58.7397 325.701C58.2821 322.383 55.5362 316.319 51.8751 315.632C49.2437 315.175 46.9555 317.234 46.8411 319.751C46.6123 322.383 48.5572 325.014 50.3878 326.616C52.2184 328.218 56.6803 329.819 58.2821 330.277C58.0533 331.535 57.71 332.794 57.3668 334.052C57.138 334.853 56.9092 335.654 56.6803 336.569C56.4515 337.37 56.1083 338.171 55.8795 338.972C55.3074 340.459 54.7354 342.061 54.1633 343.548C53.8201 344.578 53.3624 345.608 53.0192 346.523C53.248 345.265 53.5913 342.748 53.5913 342.519C53.5913 340.345 52.9048 336.684 51.3031 334.167C51.3031 333.824 51.3031 333.48 51.1887 333.137C50.731 330.62 48.4428 328.675 45.8114 329.362C42.2647 330.277 39.9765 336.569 39.7477 339.887C39.7477 340.116 39.8621 342.176 39.9765 343.548C39.7477 342.748 39.6333 342.061 39.4044 341.26C39.0612 339.659 38.6036 338.057 38.1459 336.455C37.9171 335.654 37.6883 334.853 37.3451 334.052C37.1162 333.252 36.773 332.336 36.4298 331.535C35.7433 329.59 34.9425 327.645 34.0272 325.701C35.4001 325.357 40.3197 324.099 42.2647 322.611C44.2097 321.124 46.269 318.607 46.269 315.976C46.269 313.459 44.2097 311.17 41.4638 311.514C37.8027 311.971 34.5992 317.806 33.9128 321.01C33.9128 321.239 33.6839 323.641 33.5695 324.9C32.9975 323.756 32.5398 322.611 31.9678 321.467C30.3661 318.149 28.5355 314.832 26.8193 311.514C26.2473 310.484 25.7897 309.454 25.2176 308.425C25.6752 308.31 31.6246 306.937 33.7984 305.221C35.7433 303.734 37.8027 301.217 37.8027 298.585C37.8027 296.068 35.7433 293.78 32.9975 294.123C29.3364 294.581 26.1329 300.416 25.4464 303.619C25.4464 303.848 25.1032 307.281 25.1032 308.196C23.9591 305.908 22.815 303.734 21.7853 301.446C20.4124 298.357 19.1539 295.153 18.1242 292.064C18.353 292.064 24.5311 290.577 26.8193 288.861C28.7643 287.373 30.8237 284.856 30.8237 282.225C30.8237 279.708 28.7643 277.42 26.0185 277.763C22.3574 278.22 19.1539 284.055 18.4674 287.259C18.4674 287.488 18.1242 291.263 18.1242 291.835C18.0098 291.606 18.0098 291.492 17.8954 291.263C16.8657 287.945 16.408 284.513 16.0648 281.424C15.836 279.593 15.7216 277.763 15.7216 276.047C16.8657 275.932 22.2429 275.246 24.4167 273.873C26.5905 272.614 28.8787 270.326 29.1075 267.809C29.3364 265.292 27.5058 262.775 24.8744 262.775C21.2133 262.775 17.3233 268.267 16.2936 271.47C16.2936 271.699 15.836 273.415 15.6072 274.788C15.6072 273.987 15.6072 273.186 15.6072 272.5C15.6072 269.64 15.836 267.123 15.9504 264.834C16.0648 263.576 16.1792 262.317 16.2936 261.288C17.3233 260.601 21.6709 257.512 23.0438 255.338C24.3023 253.165 25.4464 250.19 24.4167 247.673C23.5015 245.27 20.7556 244.012 18.353 245.156C15.0351 246.872 14.2343 253.508 14.6919 256.826C14.6919 257.055 15.9504 261.402 16.0648 261.402C16.0648 261.402 16.0648 261.402 16.1792 261.402C16.0648 262.432 15.836 263.576 15.7216 264.834C15.4928 267.123 15.2639 269.64 15.1495 272.5C15.0351 275.36 15.0351 278.335 15.3784 281.653C15.7216 284.856 16.1792 288.288 17.0945 291.721V291.835C16.5225 290.92 14.8063 288.403 14.5775 288.174C12.4037 285.657 6.6832 282.11 3.36531 283.598C0.84829 284.627 0.161834 287.602 1.42034 289.89C2.67885 292.522 5.76791 293.666 8.17052 294.009Z" fill="#222222"/>
<path d="M72.0112 276.504C72.1256 276.504 73.1553 272.156 73.2698 271.928C73.7274 268.61 72.6977 261.974 69.3798 260.372C66.9772 259.228 64.2314 260.601 63.4305 263.004C62.5152 265.521 63.6593 268.495 65.0322 270.555C66.4051 273.072 72.0112 276.504 72.0112 276.504Z" fill="#222222"/>
</svg>
