<svg width="742" height="286" viewBox="0 0 742 286" fill="none" xmlns="http://www.w3.org/2000/svg">
<g opacity="0.03">
<path d="M161.641 80.8204C161.641 64.8356 156.901 49.2098 148.02 35.919C139.14 22.6282 126.517 12.2692 111.749 6.15212C96.9813 0.0350189 80.731 -1.56549 65.0534 1.55298C49.3758 4.67145 34.975 12.3688 23.6721 23.6718C12.3692 34.9747 4.67178 49.3755 1.55331 65.0531C-1.56516 80.7307 0.0353513 96.981 6.15245 111.749C12.2696 126.517 22.6285 139.139 35.9193 148.02C49.2102 156.901 64.8359 161.641 80.8207 161.641V80.8204H161.641Z" fill="#FF0000"/>
<path d="M121.635 180.176V214.013H185.213V242.462H91.8927V91.5973H184.136V120.046H121.635V152.159H178.748V180.176H121.635Z" fill="#101010"/>
<path d="M264.368 131.684C278.88 131.684 291.237 137.216 301.438 148.279C311.783 159.343 316.956 172.777 316.956 188.582C316.956 204.674 311.783 218.18 301.438 229.1C291.38 240.019 279.024 245.479 264.368 245.479C249.282 245.479 237.644 240.235 229.454 229.746V285.566H201.652V134.702H229.454V147.417C237.644 136.929 249.282 131.684 264.368 131.684ZM237.859 210.565C243.463 216.168 250.575 218.97 259.196 218.97C267.817 218.97 274.929 216.168 280.532 210.565C286.28 204.818 289.153 197.49 289.153 188.582C289.153 179.674 286.28 172.418 280.532 166.814C274.929 161.067 267.817 158.193 259.196 158.193C250.575 158.193 243.463 161.067 237.859 166.814C232.256 172.418 229.454 179.674 229.454 188.582C229.454 197.49 232.256 204.818 237.859 210.565Z" fill="#101010"/>
<path d="M347.123 121.77C342.526 121.77 338.503 120.118 335.054 116.813C331.75 113.365 330.097 109.342 330.097 104.744C330.097 100.146 331.75 96.1233 335.054 92.6749C338.503 89.2266 342.526 87.5024 347.123 87.5024C351.865 87.5024 355.888 89.2266 359.193 92.6749C362.641 96.1233 364.365 100.146 364.365 104.744C364.365 109.342 362.641 113.365 359.193 116.813C355.888 120.118 351.865 121.77 347.123 121.77ZM361.132 242.462H333.33V134.702H361.132V242.462Z" fill="#101010"/>
<path d="M465.029 147.417V134.702H492.831V285.566H465.029V229.746C456.839 240.235 445.201 245.479 430.114 245.479C415.602 245.479 403.174 240.019 392.829 229.1C382.628 218.036 377.527 204.53 377.527 188.582C377.527 172.777 382.628 159.343 392.829 148.279C403.174 137.216 415.602 131.684 430.114 131.684C445.201 131.684 456.839 136.929 465.029 147.417ZM413.735 210.565C419.625 216.168 426.809 218.97 435.287 218.97C443.907 218.97 451.02 216.168 456.623 210.565C462.227 204.818 465.029 197.49 465.029 188.582C465.029 179.674 462.227 172.418 456.623 166.814C451.02 161.067 443.907 158.193 435.287 158.193C426.666 158.193 419.482 161.067 413.735 166.814C408.131 172.418 405.329 179.674 405.329 188.582C405.329 197.49 408.131 204.818 413.735 210.565Z" fill="#101010"/>
<path d="M586.146 192.892V134.702H613.948V242.462H586.146V230.393C579.537 240.45 568.833 245.479 554.034 245.479C542.252 245.479 532.482 241.528 524.723 233.626C517.108 225.58 513.3 214.66 513.3 200.866V134.702H541.102V197.418C541.102 204.458 542.97 209.918 546.706 213.798C550.585 217.677 555.83 219.617 562.439 219.617C569.767 219.617 575.514 217.39 579.681 212.936C583.991 208.338 586.146 201.657 586.146 192.892Z" fill="#101010"/>
<path d="M740.922 200.004H659.671C663.263 213.51 673.392 220.263 690.059 220.263C700.692 220.263 708.738 216.671 714.198 209.487L736.612 222.419C725.98 237.792 710.318 245.479 689.628 245.479C671.812 245.479 657.516 240.091 646.74 229.315C635.964 218.539 630.576 204.961 630.576 188.582C630.576 172.49 635.892 158.984 646.524 148.064C657.013 137.144 670.663 131.684 687.473 131.684C703.422 131.684 716.425 137.144 726.482 148.064C736.827 158.984 742 172.49 742 188.582C742 191.599 741.641 195.407 740.922 200.004ZM659.24 178.452H714.198C712.617 171.412 709.384 166.024 704.499 162.288C699.758 158.553 694.082 156.685 687.473 156.685C680.002 156.685 673.823 158.624 668.938 162.504C664.053 166.239 660.82 171.556 659.24 178.452Z" fill="#101010"/>
</g>
</svg>
