<svg width="799" height="424" viewBox="0 0 799 424" fill="none" xmlns="http://www.w3.org/2000/svg">
<path d="M1 83V279C1 338.996 1 368.994 16.2786 390.023C21.213 396.814 27.1856 402.787 33.9772 407.721C55.0064 423 85.0043 423 145 423V423C204.996 423 234.994 423 256.023 407.721C262.814 402.787 268.787 396.814 273.721 390.023C289 368.994 289 338.996 289 279V56.0134C289 25.6303 313.63 1 344.013 1V1C374.092 1 398.594 25.1566 399.021 55.2318L402.26 283.139C403.073 340.358 403.479 368.968 417.832 389.235C423.28 396.928 430.046 403.598 437.816 408.937C458.284 423 486.897 423 544.123 423V423C602.091 423 631.075 423 651.664 408.687C659.476 403.257 666.257 396.476 671.687 388.664C686 368.075 686 339.091 686 281.123V145.28C686 114.352 711.072 89.2805 742 89.2805V89.2805C772.928 89.2805 798 114.353 798 145.28V308.5" stroke="#777777" stroke-linecap="round" stroke-dasharray="5 5"/>
</svg>
