<svg width="85" height="99" viewBox="0 0 85 99" fill="none" xmlns="http://www.w3.org/2000/svg">
<path d="M6.93787 43.906C9.38425 44.3137 14.5828 42.7847 14.9905 42.6828C15.806 45.5369 16.9273 48.4929 18.1504 51.3471C18.864 52.978 19.6794 54.6089 20.393 56.2398C19.8833 55.5263 19.4756 54.9147 19.3736 54.8128C17.4369 52.5702 12.3403 49.4103 9.38426 50.7355C7.14174 51.6528 6.53015 54.3031 7.65141 56.3417C8.77266 58.3804 11.5248 59.3997 13.6654 59.7055C15.9079 60.0113 20.291 58.7881 21.5142 58.4823C21.82 59.0939 22.1258 59.7055 22.4316 60.3171C23.9606 63.2731 25.4896 66.3311 26.8147 69.2872C27.3244 70.3065 27.7321 71.4277 28.2418 72.4471C27.834 71.8355 27.4263 71.3258 27.4263 71.2239C25.4896 68.9814 20.393 65.8215 17.4369 67.1466C15.1944 68.064 14.5828 70.7142 15.7041 72.7529C16.8253 74.7915 19.5775 75.8108 21.7181 76.1166C23.8587 76.4224 27.936 75.4031 29.363 74.9954C29.7708 76.1166 30.1785 77.136 30.5862 78.2572C30.7901 78.9708 31.0959 79.6843 31.2997 80.3978C31.5036 81.1114 31.7075 81.8249 31.9113 82.6403C32.2171 84.0674 32.6249 85.4944 32.9307 86.9215C33.1345 87.8389 33.3384 88.8582 33.5423 89.7756C33.0326 88.7563 32.1152 86.7176 32.0133 86.5138C30.4843 83.9655 25.8973 80.092 22.7374 80.9075C20.393 81.5191 19.3736 83.9654 20.1891 86.106C21.0046 88.3485 23.5529 89.6737 25.5915 90.3872C27.936 91.1007 33.0326 90.4891 33.7461 90.3872C34.0519 91.9162 34.3577 93.4452 34.5616 94.8722C34.7655 95.8915 34.8674 96.9109 35.0713 97.9302H37.1099C36.906 96.8089 36.7022 95.6877 36.4983 94.5664C36.1925 93.0374 35.7848 91.3046 35.479 89.6737C35.8867 89.4698 38.0273 88.6544 39.964 87.5331C41.6969 89.3679 45.978 91.5084 46.5896 91.8142C45.978 93.2413 45.3664 94.6684 44.8568 95.9935C44.551 96.707 44.2452 97.3186 43.9394 98.0321H46.08C46.2838 97.6244 46.3858 97.2167 46.5896 96.8089C47.2012 95.3819 47.8128 93.751 48.4244 92.1201C49.036 92.222 54.1326 93.2413 56.4771 92.7316C58.6177 92.222 61.2679 90.9988 62.1853 88.8582C63.1027 86.8196 62.2872 84.1693 60.0447 83.4558C56.8848 82.4365 52.094 86.0041 50.3611 88.3485C50.2592 88.4505 49.3418 90.1833 48.7302 91.2026C48.9341 90.4891 49.2399 89.8775 49.4437 89.164C49.9534 87.8389 50.3611 86.4118 50.8708 84.9848C51.0747 84.2713 51.2785 83.5577 51.4824 82.7423C51.6862 82.0287 51.8901 81.2133 52.094 80.3978C52.5017 78.563 52.9094 76.7282 53.2152 74.8934C54.4384 75.3012 58.7196 76.8302 60.8602 76.6263C63.1027 76.4224 65.8549 75.7089 67.0781 73.6703C68.3012 71.7336 67.8935 69.0833 65.7529 67.962C62.7969 66.4331 57.4964 69.2872 55.4577 71.3258C55.3558 71.4277 54.0307 73.1606 53.3172 74.078C53.521 72.9567 53.623 71.8355 53.8268 70.7142C54.2346 67.4524 54.5404 64.0886 54.8461 60.7248C54.9481 59.7055 55.05 58.6862 55.152 57.6669C55.5597 57.8707 60.6563 59.7055 63.1027 59.5017C65.3452 59.2978 68.0974 58.5842 69.3206 56.5456C70.5438 54.6089 70.136 51.9586 67.9955 50.8374C65.0394 49.3084 59.7389 52.1625 57.7003 54.2012C57.4964 54.405 55.6616 56.7495 55.152 57.3611C55.3558 55.1186 55.6616 52.876 55.9674 50.7355C56.4771 47.6775 57.0887 44.8234 57.9041 41.9693C58.108 42.0712 63.3066 44.0079 65.8549 43.804C68.0974 43.6002 70.8496 42.8866 72.0728 40.848C73.2959 38.9113 72.8882 36.261 70.7476 35.1398C67.7916 33.6108 62.4911 36.4649 60.4524 38.5036C60.2486 38.7074 58.2099 41.2557 57.9041 41.7654C57.9041 41.5615 58.0061 41.4596 58.0061 41.2557C58.9235 38.2997 60.1466 35.5475 61.4718 32.9992C62.1853 31.5721 63.0008 30.1451 63.8162 28.82C64.7336 29.3296 69.1167 31.3683 71.3592 31.4702C73.6017 31.5721 76.3539 31.0625 77.8829 29.2277C79.31 27.4948 79.208 24.7426 77.1694 23.4175C74.4172 21.5827 68.8109 23.8253 66.5684 25.6601C66.4665 25.762 65.2433 26.8832 64.4278 27.8006C64.8355 27.189 65.1413 26.5774 65.5491 26.0678C66.9761 24.0291 68.3012 22.1943 69.6264 20.5634C70.3399 19.646 71.0534 18.8306 71.665 18.1171C72.7863 18.1171 77.4752 17.9132 79.5138 16.9958C81.5525 16.0784 83.795 14.3456 84.3047 12.0011C84.8143 9.75859 83.3873 7.41413 81.0428 7.21026C77.781 6.90447 73.8056 11.3895 72.5824 14.0398C72.4805 14.2436 71.2573 18.1171 71.3592 18.1171H71.4612C70.8496 18.8306 70.136 19.5441 69.5244 20.4615C68.1993 22.0924 66.7723 23.8253 65.3452 25.8639C63.9181 27.9026 62.3892 30.247 61.064 32.7953C59.637 35.3436 58.4138 38.0958 57.3945 41.0519V41.1538C57.3945 40.1345 57.3945 37.4842 57.2925 37.2803C56.8848 34.3243 54.4384 28.9219 51.1766 28.3103C48.8321 27.9026 46.7935 29.7374 46.6915 31.9799C46.4877 34.3243 48.2205 36.6688 49.8515 38.0958C51.6862 39.7267 56.8848 41.3577 57.2925 41.4596C56.3751 44.3137 55.6616 47.3717 55.152 50.4296C54.8462 52.1625 54.5404 53.9973 54.3365 55.8321C54.3365 55.0166 54.3365 54.2011 54.3365 54.0992C53.9288 51.1432 51.4824 45.7408 48.2205 45.1292C45.8761 44.7214 43.8374 46.5562 43.7355 48.7987C43.5316 51.1432 45.2645 53.4876 46.8954 54.9147C48.5263 56.4437 52.9094 57.8707 54.1326 58.2785C54.0307 58.992 53.9288 59.7055 53.8268 60.3171C53.4191 63.6809 53.0114 66.9427 52.6036 70.2046C52.3998 71.3258 52.1959 72.4471 51.992 73.5683C51.992 72.8548 51.992 72.2432 51.992 72.1413C51.5843 69.1852 49.1379 63.7828 45.8761 63.1712C43.5316 62.7635 41.493 64.5983 41.3911 66.8408C41.1872 69.1852 42.9201 71.5297 44.551 72.9567C46.1819 74.3838 50.1573 75.8109 51.5843 76.2186C51.3804 77.3398 51.0746 78.4611 50.7688 79.5823C50.565 80.2959 50.3611 81.0094 50.1573 81.8249C49.9534 82.5384 49.6476 83.2519 49.4437 83.9655C48.9341 85.2906 48.4244 86.7176 47.9147 88.0428C47.6089 88.9602 47.2012 89.8775 46.8954 90.693C47.0993 89.5717 47.4051 87.3292 47.4051 87.1253C47.4051 85.1886 46.7935 81.9268 45.3664 79.6843C45.3664 79.3785 45.3664 79.0727 45.2645 78.7669C44.8568 76.5244 42.8181 74.7915 40.4737 75.4031C37.3138 76.2186 35.2751 81.8249 35.0713 84.7809C35.0713 84.9848 35.1732 86.8196 35.2751 88.0428C35.0712 87.3292 34.9693 86.7176 34.7654 86.0041C34.4597 84.5771 34.0519 83.15 33.6442 81.7229C33.4403 81.0094 33.2365 80.2959 32.9307 79.5823C32.7268 78.8688 32.421 78.0534 32.1152 77.3398C31.5036 75.607 30.7901 73.8741 29.9746 72.1413C31.1978 71.8355 35.5809 70.7142 37.3138 69.3891C39.0466 68.064 40.8814 65.8215 40.8814 63.477C40.8814 61.2345 39.0466 59.1959 36.6002 59.5017C33.3384 59.9094 30.4843 65.1079 29.8727 67.962C29.8727 68.1659 29.6688 70.3065 29.5669 71.4277C29.0572 70.4084 28.6495 69.3891 28.1398 68.3698C26.7128 65.4137 25.0819 62.4577 23.5529 59.5017C23.0432 58.5843 22.6355 57.6669 22.1258 56.7495C22.5335 56.6475 27.834 55.4244 29.7708 53.8954C31.5036 52.5702 33.3384 50.3277 33.3384 47.9833C33.3384 45.7407 31.5036 43.7021 29.0572 44.0079C25.7954 44.4156 22.9413 49.6142 22.3297 52.4683C22.3297 52.6722 22.0239 55.7301 22.0239 56.5456C21.0046 54.5069 19.9852 52.5702 19.0678 50.5316C17.8447 47.7794 16.7234 44.9253 15.806 42.1731C16.0099 42.1731 21.5142 40.848 23.5529 39.319C25.2857 37.9939 27.1205 35.7514 27.1205 33.4069C27.1205 31.1644 25.2857 29.1258 22.8394 29.4316C19.5775 29.8393 16.7234 35.0378 16.1118 37.892C16.1118 38.0958 15.806 41.4596 15.806 41.9693C15.7041 41.7654 15.7041 41.6635 15.6021 41.4596C14.6847 38.5035 14.277 35.4456 13.9712 32.6934C13.7674 31.0625 13.6654 29.4316 13.6654 27.9026C14.6848 27.8006 19.4756 27.189 21.4123 25.9658C23.349 24.8446 25.3877 22.8059 25.5915 20.5634C25.7954 18.3209 24.1645 16.0784 21.82 16.0784C18.5582 16.0784 15.0925 20.9712 14.1751 23.8253C14.1751 24.0291 13.7674 25.5581 13.5635 26.7813C13.5635 26.0678 13.5635 25.3543 13.5635 24.7427C13.5635 22.1944 13.7674 19.9518 13.8693 17.9132C13.9712 16.7919 14.0732 15.6707 14.1751 14.7533C15.0925 14.1417 18.9659 11.3895 20.1891 9.45279C21.3104 7.51607 22.3297 4.86582 21.4123 2.6233C20.5968 0.482718 18.1505 -0.63852 16.0099 0.380805C13.0538 1.90979 12.3403 7.82186 12.748 10.7779C12.748 10.9818 13.8693 14.8552 13.9712 14.8552C13.9712 14.8552 13.9712 14.8552 14.0731 14.8552C13.9712 15.7726 13.7674 16.7919 13.6654 17.9132C13.4616 19.9518 13.2577 22.1944 13.1558 24.7427C13.0538 27.291 13.0538 29.9412 13.3596 32.8973C13.6654 35.7514 14.0732 38.8093 14.8886 41.8673V41.9693C14.379 41.1538 12.85 38.9113 12.6461 38.7074C10.7094 36.4649 5.61276 33.305 2.65671 34.6301C0.414198 35.5475 -0.197394 38.1977 0.923863 40.2364C2.04512 42.5808 4.79729 43.6002 6.93787 43.906Z" fill="#222222"/>
</svg>
