<svg width="1040" height="666" viewBox="0 0 1040 666" fill="none" xmlns="http://www.w3.org/2000/svg">
<g clip-path="url(#clip0_114_5113)">
<path d="M443.079 213.309L644.549 105.337L650.398 116.38L678.296 71.4677L625.422 69.7411L631.393 80.7514L423.029 192.409" stroke="#222222" stroke-miterlimit="10" stroke-linecap="round" stroke-linejoin="round"/>
<path d="M799.384 211.101L904.374 154.858L907.487 160.592L921.958 137.142L894.397 136.251L897.51 141.985L788.827 200.137" stroke="#222222" stroke-miterlimit="10" stroke-linecap="round" stroke-linejoin="round"/>
<path d="M820.024 131.747L791.663 130.809L796.045 138.829L415.044 343.509L419.901 352.322L800.812 147.798L805.194 155.819L820.024 131.747Z" fill="#222222"/>
<path d="M309.259 500.715L563.494 364.156L567.753 372.209L582.706 348.105L554.344 347.166L558.604 355.22L302.997 492.541" stroke="#444444" stroke-linecap="round" stroke-dasharray="5 5"/>
<path d="M935.798 390.763L882.923 389.037L888.772 400.08L680.408 511.738L693.564 536.323L901.928 424.665L907.899 435.676L935.798 390.763Z" fill="#222222"/>
<path d="M763.293 426.703L734.978 425.49L739.093 433.479L355.378 632.756L360.019 641.791L743.734 442.514L748.003 450.595L763.293 426.703Z" fill="#222222"/>
<path d="M927.888 220.072C927.888 220.072 918.626 192.538 903.4 194.061C888.301 195.583 888.682 207.637 883.606 210.682C878.531 213.728 873.456 202.943 864.955 206.368C856.454 209.921 856.454 215.631 854.424 219.564C852.52 223.497 844.781 212.586 836.533 214.108C828.413 215.631 829.174 225.781 827.271 228.065C825.368 230.349 819.912 226.923 815.978 228.065C812.045 229.207 809 236.186 809 236.186H951.869C951.869 236.186 950.346 224.513 943.368 221.087C936.389 217.788 933.598 225.528 927.888 220.072Z" fill="white"/>
<path d="M403.888 122.072C403.888 122.072 394.626 94.5383 379.4 96.0609C364.301 97.5835 364.682 109.637 359.606 112.809C354.531 115.854 349.456 105.069 340.955 108.495C332.454 112.048 332.454 117.758 330.424 121.691C328.52 125.624 320.781 114.712 312.533 116.235C304.413 117.758 305.174 127.908 303.271 130.192C301.368 132.476 295.912 129.05 291.978 130.192C288.045 131.334 285 138.312 285 138.312H427.742C427.742 138.312 426.219 126.639 419.241 123.214C412.516 119.661 409.725 127.528 403.888 122.072Z" fill="white"/>
<path d="M241.138 509.69C241.138 509.69 234.413 490.023 223.628 491.038C212.843 492.053 213.097 500.808 209.417 502.965C205.864 505.249 202.185 497.382 196.095 499.92C190.004 502.457 190.004 506.644 188.609 509.309C187.213 512.1 181.63 504.361 175.794 505.376C169.957 506.518 170.465 513.75 169.069 515.399C167.673 517.049 163.74 514.511 160.948 515.399C158.157 516.287 156 521.236 156 521.236H258.267C258.267 521.236 257.125 512.862 252.176 510.451C247.228 507.913 245.325 513.496 241.138 509.69Z" fill="white"/>
<path d="M839.138 67.6896C839.138 67.6896 832.413 48.0229 821.628 49.038C810.843 50.1799 811.097 58.8079 807.417 60.9649C803.864 63.2487 800.185 55.3821 794.095 57.9197C788.004 60.4573 788.004 64.6444 786.609 67.3089C785.213 70.1003 779.63 62.3606 773.794 63.3756C767.957 64.5175 768.464 71.7498 767.069 73.3993C765.673 75.0487 761.74 72.5111 758.948 73.3993C756.157 74.2874 754 79.2358 754 79.2358H856.267C856.267 79.2358 855.125 70.8616 850.176 68.4509C845.228 66.0401 843.198 71.6229 839.138 67.6896Z" fill="white"/>
<path d="M683.138 600.69C683.138 600.69 676.413 581.023 665.628 582.038C654.843 583.18 655.097 591.808 651.417 593.965C647.864 596.249 644.185 588.382 638.095 590.92C632.004 593.457 632.004 597.644 630.609 600.309C629.213 602.973 623.63 595.361 617.794 596.376C611.957 597.391 612.464 604.75 611.069 606.399C609.673 608.049 605.74 605.511 602.948 606.399C600.157 607.287 598 612.236 598 612.236H700.267C700.267 612.236 699.125 603.862 694.176 601.451C689.228 599.04 687.325 604.623 683.138 600.69Z" fill="white"/>
<path d="M772.447 322.353L810.155 326.304L114.729 671.848L127.405 719.156L878.217 336.178L912.11 342.071L960.717 274.927L772.447 322.353Z" fill="white"/>
<path d="M960.716 274.928L959.369 269.903L910.762 337.046L912.109 342.071L960.716 274.928Z" fill="white"/>
<path d="M771.101 317.328L772.447 322.353L799.5 326L808.808 321.279L771.101 317.328Z" fill="white"/>
<path d="M771.101 317.328L808.808 321.279L113.383 666.824L126.026 714.008L876.87 331.153L910.763 337.046L959.37 269.902L771.101 317.328Z" fill="#FFA800"/>
<path d="M593.654 276.208L613.369 359.592C613.369 359.592 608.815 365.147 608.724 370.689C608.632 376.23 611.498 407.514 611.449 408.315C611.279 409.148 607.326 412.047 607.419 413.861C607.511 415.675 608.323 418.216 608.323 418.216C608.323 418.216 603.463 427.531 604.201 436.66C604.939 445.788 610.682 443.199 614.38 439.843C618.079 436.488 618.855 422.225 619.531 420.336C620.207 418.447 621.968 415.217 623.15 412.273C624.454 409.296 624.797 402.242 624.797 402.242C624.797 402.242 640.488 359.813 642.765 350.664C645.01 341.393 642.318 311.246 642.519 308.565C642.72 305.884 647.489 302.11 647.489 302.11C647.489 302.11 689.694 308.14 693.822 308.348C697.827 308.588 751.085 351.458 751.085 351.458C751.085 351.458 752.596 357.096 753.725 358.37C754.855 359.643 761.692 363.591 761.692 363.591C761.692 363.591 761.78 368.822 764.748 369.603C767.716 370.384 776.538 366.05 778.033 365.255C779.527 364.461 787.78 362.906 790.803 361.439C793.825 359.973 798.504 356.355 797.652 355.138C796.801 353.921 782.433 354.224 779.441 353.844C776.449 353.463 771.404 351.794 771.404 351.794C771.404 351.794 767.979 343.911 766.464 341.689C764.949 339.468 760.487 339.482 759.618 337.219C758.871 334.923 720.773 291.275 718.155 289.349C715.415 287.456 658.384 261.885 658.384 261.885L647.532 249.818C647.532 249.818 642.734 262.795 622.792 270.24C602.728 277.718 593.654 276.208 593.654 276.208Z" fill="#222222" stroke="#444444" stroke-miterlimit="10" stroke-linecap="round" stroke-linejoin="round"/>
<path d="M579.83 199.128C579.83 199.128 564.736 227.605 566.881 230.708C569.026 233.811 591.079 269.543 591.079 269.543C591.079 269.543 590.927 278.779 597.388 282.302C603.971 285.792 623.428 282.418 636.355 273.305C649.16 264.226 649.163 253.454 647.865 247.628C646.534 241.679 630.702 193.379 630.702 193.379L683.007 122.88L677.677 115.244L621.454 155.924C621.454 155.924 613.927 156.758 604.009 167.297C594.124 177.959 593.538 179.692 593.538 179.692L579.83 199.128Z" fill="white" stroke="#222222" stroke-miterlimit="10" stroke-linecap="round" stroke-linejoin="round"/>
<path d="M630.579 193.411L625.085 165.065" stroke="#222222" stroke-miterlimit="10" stroke-linecap="round" stroke-linejoin="round"/>
<path d="M634.598 178.017L639.724 151.554" stroke="#222222" stroke-miterlimit="10" stroke-linecap="round" stroke-linejoin="round"/>
<path d="M632.559 188.546L633.924 181.875" stroke="#222222" stroke-miterlimit="10" stroke-linecap="round" stroke-linejoin="round"/>
<path d="M637.722 173.501L644.908 154.237" stroke="#222222" stroke-miterlimit="10" stroke-linecap="round" stroke-linejoin="round"/>
<path d="M671.471 119.534L676.722 129.818" stroke="#222222" stroke-miterlimit="10" stroke-linecap="round" stroke-linejoin="round"/>
<path d="M599.348 212.157L606.356 215.27C606.356 215.27 613.014 219.529 613.651 218.964C614.165 218.432 615.117 214.631 615.399 211.271C615.681 207.912 613.094 204.139 613.094 204.139L610.649 195.993L607.307 196.757L610.45 208L609.146 210.976L600.562 209.336L599.348 212.157Z" fill="#FFA800" stroke="#222222" stroke-miterlimit="10" stroke-linecap="round" stroke-linejoin="round"/>
<path d="M581.565 199.714C581.565 199.714 583.813 207.124 587.799 211.705C591.785 216.285 597.758 221.909 598.924 219.889C600.091 217.869 602.125 203.4 603.398 202.27C604.672 201.141 618.974 200.593 620.517 198.997C622.06 197.401 612.156 184.949 608.54 182.24C599.067 175.321 595.839 175.529 594.622 176.38C593.405 177.232 579.428 189.778 581.565 199.714Z" fill="white" stroke="#222222" stroke-miterlimit="10" stroke-linecap="round" stroke-linejoin="round"/>
<path d="M582.118 197.858C582.118 197.858 586.944 201.162 594.418 204.545C601.925 208.051 609.426 213.003 609.146 210.976C608.898 209.072 600.421 180.869 599.782 179.464C599.143 178.059 598.268 177.242 598.268 177.242L590.152 170.485L587.38 163.083C587.38 163.083 585.303 162.195 583.01 164.911C580.839 167.594 587.8 178.865 587.095 184.571C586.424 190.399 582.118 197.858 582.118 197.858Z" fill="white" stroke="#222222" stroke-miterlimit="10" stroke-linecap="round" stroke-linejoin="round"/>
<path d="M554.712 162.248C554.712 162.248 552.408 169.827 553.498 172.425C554.711 174.99 557.39 180.577 557.557 183.16C557.723 185.742 553.668 191.689 555.467 192.52C557.266 193.352 562.56 191.539 562.56 191.539L564.395 194.463C564.395 194.463 566.39 188.674 572.168 188.177C577.913 187.557 584.619 183.659 584.877 180.7C585.257 177.708 582.151 170.527 579.769 168.013C577.388 165.498 573.521 164.301 573.002 160.894C572.483 157.486 574.489 154.19 570.009 153.157C565.562 152.247 554.712 162.248 554.712 162.248Z" fill="white" stroke="#222222" stroke-miterlimit="10" stroke-linecap="round" stroke-linejoin="round"/>
<path d="M550.152 156.508C550.152 156.508 541.4 157.671 542.646 160.358C543.891 163.045 546.509 164.971 557.213 162.76C567.918 160.548 570.423 157.644 570.423 157.644C570.423 157.644 564.178 163.258 567.898 164.888C571.619 166.519 576.311 167.363 576.311 167.363C576.311 167.363 583.392 176.631 583.828 178.747C584.231 180.741 581.259 183.376 578.416 184.532C575.451 185.721 570.866 185.767 567.649 188.468C564.432 191.169 564.117 194.406 565.704 195.426C567.168 196.479 574.496 207.651 576.947 206.994C579.398 206.337 591.682 191.88 592.395 186.698C593.108 181.515 585.581 174.994 586.517 172.116C587.454 169.238 596.825 166.464 596.03 157.613C595.202 148.64 584.821 140.782 577.259 139.524C569.853 138.356 561.162 143.18 559.341 144.719C557.521 146.258 556.827 147.1 556.827 147.1C556.827 147.1 548.49 147.364 546.606 150.627C544.477 153.956 550.152 156.508 550.152 156.508Z" fill="#222222" stroke="#444444" stroke-miterlimit="10" stroke-linecap="round" stroke-linejoin="round"/>
<path d="M565.078 178.386C565.685 179.668 565.613 180.87 565.033 181.156C564.453 181.443 563.455 180.66 562.848 179.377C562.242 178.095 562.314 176.893 562.894 176.606C563.474 176.32 564.472 177.103 565.078 178.386Z" fill="#222222"/>
<path d="M559.263 174.821C559.263 174.821 559.865 172.164 563.756 172.96" stroke="#222222" stroke-miterlimit="10" stroke-linecap="round" stroke-linejoin="round"/>
<path d="M570.46 194.546C570.46 194.546 573.312 193.913 574.066 189.376" stroke="white" stroke-miterlimit="10" stroke-linecap="round" stroke-linejoin="round"/>
<path d="M586.929 174.633C586.929 174.633 582.173 168.157 585.235 165.366C588.296 162.576 591.536 164.86 592.359 169.894C593.182 174.928 592.016 176.948 591.003 177.088" fill="white"/>
<path d="M586.929 174.633C586.929 174.633 582.173 168.157 585.235 165.366C588.296 162.576 591.536 164.86 592.359 169.894C593.182 174.928 592.016 176.948 591.003 177.088" stroke="#222222" stroke-miterlimit="10" stroke-linecap="round" stroke-linejoin="round"/>
<path d="M619.199 237.707C619.199 237.707 624.139 220.358 624.923 219.359C625.583 218.394 640.759 216.692 640.759 216.692C640.759 216.692 642.37 217.312 642.357 220.205C642.344 223.098 644.411 228.85 643.259 229.946C642.076 230.92 636.922 233.746 636.922 233.746L636.037 232.407C636.037 232.407 633.869 237.06 632.864 237.723C631.86 238.386 627.767 240.271 627.767 240.271L624.17 245.964L619.199 237.707Z" fill="white" stroke="#222222" stroke-miterlimit="10" stroke-linecap="round" stroke-linejoin="round"/>
<path d="M571.819 216.775C571.819 216.775 564.51 228.716 564.458 232.934C564.438 237.274 578.314 290.039 580.982 293.134C583.74 296.073 588.578 289.128 589.003 288.751C589.428 288.375 624.08 246.119 624.08 246.119L619.109 237.862L592.994 257.076L588.471 233.33" fill="white"/>
<path d="M571.819 216.775C571.819 216.775 564.51 228.716 564.458 232.934C564.438 237.274 578.314 290.039 580.982 293.134C583.74 296.073 588.578 289.128 589.003 288.751C589.428 288.375 624.08 246.119 624.08 246.119L619.109 237.862L592.994 257.076L588.471 233.33" stroke="#222222" stroke-miterlimit="10" stroke-linecap="round" stroke-linejoin="round"/>
<path d="M581.565 274.719C581.812 276.623 582.084 278.127 582.084 278.127" stroke="#222222" stroke-miterlimit="10" stroke-linecap="round" stroke-linejoin="round"/>
<path d="M593.118 257.043C593.118 257.043 583.539 263.944 581.981 266.463C581.32 267.428 581.232 269.554 581.39 271.613" stroke="#222222" stroke-miterlimit="10" stroke-linecap="round" stroke-linejoin="round"/>
<path d="M613.816 241.645L619.427 251.307" stroke="#222222" stroke-miterlimit="10" stroke-linecap="round" stroke-linejoin="round"/>
<path d="M702.347 103.379C702.347 103.379 706.588 103.031 706.68 104.845C706.773 106.66 704.534 114.484 704.534 114.484C704.534 114.484 694.996 114.675 694.707 112.125C694.418 109.576 695.764 107.245 697.773 105.918C699.815 104.714 702.347 103.379 702.347 103.379Z" fill="white" stroke="#222222" stroke-miterlimit="10" stroke-linecap="round" stroke-linejoin="round"/>
<path d="M677.555 115.276C677.555 115.276 686.151 106.668 691.445 104.855C696.862 103.01 709.251 94.83 710.958 93.8472C712.698 92.987 713.385 93.5909 712.44 95.9459C711.495 98.3009 708.203 100.234 706.562 101.462C705.043 102.657 697.692 106.597 697.685 108.044C697.556 109.523 698.384 111.14 699.75 111.825C701.115 112.51 706.624 112.479 706.839 114.261C706.931 116.075 706.572 116.696 705.559 116.837C704.578 117.099 700.63 116.581 698.693 116.706C696.879 116.798 692.974 118.895 691.037 119.02C689.101 119.145 686.754 118.723 686.754 118.723L682.885 122.912L677.555 115.276Z" fill="white" stroke="#222222" stroke-miterlimit="10" stroke-linecap="round" stroke-linejoin="round"/>
<path d="M613.561 219.12C613.561 219.12 609.221 226.456 597.477 227.239C585.701 227.898 569.496 223.308 562.002 224.265C554.509 225.222 546.654 232.187 539.342 234.803C532.031 237.419 527.55 236.386 527.55 236.386L517.788 247.015L533.592 251.581C533.592 251.581 536.871 252.542 547.531 247.715C558.191 242.888 568.339 233.207 574.102 233.633C579.831 233.937 597.226 236.107 604.667 232.011C611.83 227.859 613.561 219.12 613.561 219.12Z" fill="#FFA800" stroke="#222222" stroke-miterlimit="10" stroke-linecap="round" stroke-linejoin="round"/>
<path d="M528.382 316.949C528.382 316.949 534.276 317.865 533.827 318.642C533.412 319.542 531.941 319.936 531.385 319.822C530.829 319.708 524.305 317.91 524.305 317.91L528.382 316.949Z" fill="white" stroke="#222222" stroke-miterlimit="10" stroke-linecap="round" stroke-linejoin="round"/>
<path d="M525.858 318.807C525.858 318.807 530.364 321.409 529.662 321.729C528.959 322.048 528.102 322.278 527.268 322.108C526.401 321.815 523.693 320.044 523.693 320.044L525.858 318.807Z" fill="white" stroke="#222222" stroke-miterlimit="10" stroke-linecap="round" stroke-linejoin="round"/>
<path d="M524.333 321.449C524.333 321.449 526.933 322.329 526.485 323.105C526.036 323.882 524.033 323.762 523.534 323.371C522.946 323.134 521.801 322.784 521.801 322.784L524.333 321.449Z" fill="white" stroke="#222222" stroke-miterlimit="10" stroke-linecap="round" stroke-linejoin="round"/>
<path d="M472.293 307.151L510.645 323.803C510.645 323.803 509.858 328.217 508.527 329.625C507.197 331.032 507.197 331.032 507.197 331.032C507.197 331.032 489.756 331.633 482.448 330.833C475.14 330.032 467.758 328.464 467.758 328.464C467.758 328.464 463.61 325.24 464.155 322.861C464.7 320.482 472.293 307.151 472.293 307.151Z" fill="white" stroke="#222222" stroke-miterlimit="10" stroke-linecap="round" stroke-linejoin="round"/>
<path d="M510.612 323.68C510.612 323.68 516.93 316.865 518.915 315.939C520.9 315.013 534.067 314.637 534.787 315.364C535.507 316.09 535.058 316.867 534.233 317.22C533.408 317.572 524.304 317.91 524.304 317.91C524.304 317.91 521.958 324.844 517.491 328.274C512.992 331.581 507.352 331.122 507.352 331.122C507.352 331.122 510.722 326.541 510.612 323.68Z" fill="white" stroke="#222222" stroke-miterlimit="10" stroke-linecap="round" stroke-linejoin="round"/>
<path d="M516.129 324.172C516.129 324.172 519.445 321.839 520.743 320.309C522.073 318.902 524.465 316.553 525.207 314.909C526.071 313.233 527.15 313.338 527.789 314.743C528.396 316.025 527.833 317.358 526.927 318.389C526.021 319.42 524.332 321.449 524.332 321.449C524.332 321.449 522.711 325.693 520.343 327.641C517.975 329.589 513.031 330.257 512.221 329.686" fill="white"/>
<path d="M516.129 324.172C516.129 324.172 519.445 321.839 520.743 320.309C522.073 318.902 524.465 316.553 525.207 314.909C526.071 313.233 527.15 313.338 527.789 314.743C528.396 316.025 527.833 317.358 526.927 318.389C526.021 319.42 524.332 321.449 524.332 321.449C524.332 321.449 522.711 325.693 520.343 327.641C517.975 329.589 513.031 330.257 512.221 329.686" stroke="#222222" stroke-miterlimit="10" stroke-linecap="round" stroke-linejoin="round"/>
<path d="M485.744 352.937C485.744 352.937 531.899 374.198 533.707 375.552C535.392 376.94 555.382 443.699 555.382 443.699L559.249 444.895C559.249 444.895 560.11 446.635 560.184 447.403C560.259 448.172 569.497 450.294 575.244 451.644C580.992 452.994 581.225 450.435 580.992 452.994C580.88 455.519 572.041 458.807 569.712 459.431C567.261 460.088 562.26 461.034 560.275 461.96C558.29 462.886 552.213 465.696 550.781 464.766C549.227 463.869 545.996 454.752 545.996 454.752C545.996 454.752 543.591 452.638 543.205 451.69C542.82 450.743 541.566 447.532 541.491 446.764C541.417 445.996 514.3 392.837 514.3 392.837L460.626 385.676L456.274 388.55C456.274 388.55 453.539 432.762 453.706 435.345C453.873 437.927 429.149 499.591 429.149 499.591C429.149 499.591 426.013 508.969 426.04 510.538C425.944 512.14 422.416 514.662 422.416 514.662C422.416 514.662 421.194 531.672 421.115 534.32C421.07 537.091 418.923 539.374 416.089 541.053C413.344 542.576 407.629 533.993 408.115 529.922C408.6 525.851 413.677 512.932 413.677 512.932C413.677 512.932 413.134 509.924 413.296 508.568C413.425 507.088 415.414 502.746 415.414 502.746L423.58 435.667L414.47 377.158C414.47 377.158 461.948 376.39 485.744 352.937Z" fill="#222222" stroke="#444444" stroke-miterlimit="10" stroke-linecap="round" stroke-linejoin="round"/>
<path d="M431.569 273.796C431.569 273.796 406.57 289.821 405.143 292.83C403.683 295.717 380.648 340.64 376.22 355.488C371.791 370.335 369.318 393.46 369.318 393.46L379.11 393.726C379.11 393.726 388.676 369.62 392.127 364.361C395.455 359.134 417.535 321.43 417.535 321.43L424.091 336.093L406.15 376.498C406.15 376.498 413.77 384.833 430.534 386.121C447.332 387.531 462.251 383.402 473.419 372.134C484.553 360.744 490.118 353.079 490.118 353.079C490.118 353.079 478.178 340.384 473.879 333.655C469.491 327.08 466.772 322.817 466.772 322.817C466.772 322.817 475.42 309.991 473.912 306.323C472.404 302.655 469.869 294.665 469.737 294.175C469.696 293.529 471.452 279.003 468.692 274.095C465.931 269.186 462.644 267.702 458.107 266.948C453.603 266.316 448.333 267.728 448.333 267.728L431.569 273.796Z" fill="white" stroke="#222222" stroke-miterlimit="10" stroke-linecap="round" stroke-linejoin="round"/>
<path d="M456.626 327.112L431.959 340.946" stroke="#222222" stroke-miterlimit="10" stroke-linecap="round" stroke-linejoin="round"/>
<path d="M464.155 322.861L460.741 324.827" stroke="#222222" stroke-miterlimit="10" stroke-linecap="round" stroke-linejoin="round"/>
<path d="M448.094 335.966L426.295 348.244" stroke="#222222" stroke-miterlimit="10" stroke-linecap="round" stroke-linejoin="round"/>
<path d="M433.736 269.143C433.736 269.143 431.279 271.246 429.852 274.256C428.392 277.143 430.373 299.731 433.28 304.206C436.186 308.682 437.346 308.108 439.412 306.504C441.478 304.899 449.713 294.943 449.713 294.943C449.713 294.943 464.002 297.288 466.836 295.609C469.671 293.93 462.905 281.425 458.262 274.393C453.497 267.395 453.479 266.349 446.979 264.15C440.356 261.983 433.736 269.143 433.736 269.143Z" fill="#FFA800" stroke="#222222" stroke-miterlimit="10" stroke-linecap="round" stroke-linejoin="round"/>
<path d="M439.635 219.091C439.635 219.091 446.389 221.748 450.129 226.394C453.993 231.007 454.542 232.567 458.024 232.817C461.473 232.943 463.907 231.24 464.4 233.079C464.892 234.917 461.498 239.899 461.498 239.899C461.498 239.899 466.244 251.237 466.826 252.92C467.409 254.603 455.155 259.857 455.155 259.857C455.155 259.857 452.17 285.483 452.709 291.907C453.37 298.297 450.744 303.204 450.744 303.204L433.17 273.892L430.792 260.605C430.792 260.605 429.163 258.94 426.887 255.346C424.61 251.753 428.484 244.147 430.359 240.361C432.267 236.697 434.855 227.728 435.667 222.913C436.479 218.098 439.635 219.091 439.635 219.091Z" fill="white" stroke="#222222" stroke-miterlimit="10" stroke-linecap="round" stroke-linejoin="round"/>
<path d="M455.244 259.702L449.526 261.891L454.002 266.34L455.244 259.702Z" fill="#222222" stroke="#222222" stroke-miterlimit="10" stroke-linecap="round" stroke-linejoin="round"/>
<path d="M452.548 232.97C453.245 234.097 453.328 235.389 452.781 235.798C452.234 236.207 451.113 235.457 450.417 234.33C449.721 233.203 449.638 231.911 450.185 231.502C450.765 231.215 451.852 231.843 452.548 232.97Z" fill="#222222"/>
<path d="M447.128 230.876C447.128 230.876 447.762 228.342 449.642 228.495" stroke="#222222" stroke-miterlimit="10" stroke-linecap="round" stroke-linejoin="round"/>
<path d="M454.497 242.694C454.497 242.694 456.878 245.209 459.901 243.742" stroke="#222222" stroke-miterlimit="10" stroke-linecap="round" stroke-linejoin="round"/>
<path d="M437.922 248.975C437.922 248.975 441.743 245.586 441.232 242.702C440.755 239.94 434.377 237.708 436.253 233.922C438.128 230.135 442.921 225.961 440.434 217.17C437.979 208.501 425.754 209.938 420.011 212.527C414.359 214.961 403.213 223.859 402.187 234.248C401.284 244.605 404.612 252.12 409.398 256.749C414.185 261.377 420.823 262.62 424.82 262.337C428.693 262.087 432.928 263.185 434.749 261.647C436.693 260.075 435.642 256.153 435.116 254.192C434.624 252.354 437.922 248.975 437.922 248.975Z" fill="#222222" stroke="#444444" stroke-miterlimit="10" stroke-linecap="round" stroke-linejoin="round"/>
<path d="M441.51 250.115C441.51 250.115 433.438 245.972 431.872 247.968C430.182 249.997 429.729 254.191 433.859 256.368C437.834 258.456 441.353 255.411 442.029 253.522" fill="white"/>
<path d="M441.51 250.115C441.51 250.115 433.438 245.972 431.872 247.968C430.182 249.997 429.729 254.191 433.859 256.368C437.834 258.456 441.353 255.411 442.029 253.522" stroke="#222222" stroke-miterlimit="10" stroke-linecap="round" stroke-linejoin="round"/>
<path d="M401.888 236.562C401.888 236.562 395.314 228.208 382.831 232.604C370.381 237.123 371.513 247.722 373.978 251.528C376.475 255.456 380.592 260.526 377.782 261.805C374.972 263.083 368.525 264.023 365.076 271.252C361.628 278.481 369.695 286.04 375.85 285.967C382.127 285.861 380.991 286.034 380.991 286.034C380.991 286.034 373.604 287.882 376.529 293.404C379.576 298.893 391.742 295.764 395.808 292.31C399.907 288.979 392.586 283.716 392.586 283.716C392.586 283.716 401.303 280.461 403.546 276.576C405.789 272.691 401.529 271.993 405.311 269.929C408.937 267.775 413.409 268.284 413.183 264.01C412.957 259.736 411.555 262.345 409.431 256.871C407.308 251.398 402.624 251.076 401.888 236.562Z" fill="#222222" stroke="#444444" stroke-miterlimit="10" stroke-linecap="round" stroke-linejoin="round"/>
<path d="M417.501 321.307L425.482 310.893" stroke="#222222" stroke-miterlimit="10" stroke-linecap="round" stroke-linejoin="round"/>
<path d="M379.199 393.571C379.199 393.571 380.826 400.623 381.465 402.028C382.104 403.433 384.372 406.503 385.812 407.956C387.252 409.409 390.327 411.081 389.609 412.324C388.925 413.69 386.57 412.745 385.604 412.084C384.639 411.423 382.159 408.541 382.159 408.541L385.308 423.723L383.822 425.04C383.822 425.04 382.734 424.412 382.406 423.187C382.077 421.961 378.511 413.065 378.511 413.065C378.511 413.065 379.036 427.768 378.799 428.357C378.596 429.068 376.503 429.103 376.274 428.245C376.044 427.387 373.961 415.204 373.961 415.204C373.961 415.204 373.494 427.676 373.38 428.232C373.299 428.911 371.805 429.705 371.117 429.101C370.43 428.497 370.787 425.906 370.787 425.906L370.897 416.025L367.926 426.016C367.926 426.016 366.521 426.655 366.405 425.241C366.256 423.705 368.181 413.731 368.181 413.731C368.181 413.731 366.924 408.551 367.119 407.316C367.314 406.082 369.595 393.517 369.595 393.517L379.199 393.571Z" fill="white" stroke="#222222" stroke-miterlimit="10" stroke-linecap="round" stroke-linejoin="round"/>
</g>
<defs>
<clipPath id="clip0_114_5113">
<rect width="1040" height="666" fill="white"/>
</clipPath>
</defs>
</svg>
