<svg width="14" height="16" viewBox="0 0 14 16" fill="none" xmlns="http://www.w3.org/2000/svg">
<path d="M1.45271 6.86319C1.40034 6.91503 1.33787 6.9562 1.26894 6.98431C1.20001 7.01242 1.126 7.02689 1.05124 7.02689C0.976475 7.02689 0.902465 7.01242 0.833532 6.98431C0.764599 6.9562 0.702126 6.91503 0.649765 6.86319C0.543189 6.75786 0.483469 6.61609 0.483469 6.4684C0.483469 6.32071 0.543189 6.17894 0.649765 6.07361L5.61647 1.20013C6.73647 0.355355 7.86306 -0.0502347 8.98471 0.0049639C10.3979 0.0753621 11.4981 0.598549 12.432 1.45693C13.384 2.3321 14 3.58087 14 5.09443C14 6.25601 13.6525 7.27838 12.9187 8.18556L5.91624 15.1934C5.208 15.7574 4.42071 16.0302 3.57741 15.9974C2.50682 15.9542 1.71047 15.6182 1.11835 15.0494C0.424941 14.3846 0 13.5678 0 12.4694C0 11.5959 0.310471 10.7895 0.951176 10.0327L7.11447 3.92006C7.60859 3.40808 8.092 3.10409 8.58612 3.03049C8.91592 2.98003 9.25342 3.00868 9.5692 3.11396C9.88499 3.21923 10.1695 3.39793 10.3979 3.63447C10.836 4.08486 11.0238 4.64645 10.9579 5.28563C10.9126 5.72162 10.7289 6.12321 10.3913 6.508L4.72541 12.1463C4.67339 12.1983 4.61123 12.2397 4.54255 12.2682C4.47387 12.2966 4.40005 12.3115 4.32539 12.312C4.25073 12.3124 4.17672 12.2984 4.10769 12.2708C4.03865 12.2432 3.97597 12.2025 3.92329 12.1511C3.81606 12.0464 3.75545 11.9049 3.75452 11.7572C3.7536 11.6096 3.81243 11.4674 3.91835 11.3615L9.55706 5.75202C9.72176 5.56402 9.80824 5.37443 9.82882 5.17283C9.86176 4.85284 9.78271 4.61685 9.57765 4.40645C9.47409 4.2987 9.34471 4.21748 9.20103 4.17003C9.05736 4.12258 8.90383 4.11036 8.75412 4.13446C8.554 4.16406 8.274 4.34085 7.92894 4.69764L1.79118 10.7831C1.34894 11.3071 1.13482 11.8631 1.13482 12.4702C1.13482 13.2334 1.41894 13.7798 1.91059 14.251C2.30176 14.627 2.83294 14.851 3.62353 14.883C4.18353 14.9046 4.70235 14.7246 5.15365 14.3694L12.0688 7.44957C12.6 6.78799 12.8652 6.00961 12.8652 5.09523C12.8652 3.90966 12.39 2.94809 11.6562 2.27291C10.9068 1.58332 10.0504 1.17693 8.92788 1.12094C8.09776 1.07934 7.22729 1.39293 6.36094 2.03771L1.45271 6.86399V6.86319Z" fill="#ffa800"/>
</svg>
