<svg width="138" height="54" viewBox="0 0 138 54" fill="none" xmlns="http://www.w3.org/2000/svg">
<path d="M30.0626 15.0313C30.0626 12.0584 29.181 9.15223 27.5294 6.68035C25.8777 4.20847 23.5302 2.28188 20.7836 1.14419C18.037 0.00651294 15.0147 -0.291157 12.0989 0.288828C9.1831 0.868814 6.50479 2.3004 4.40263 4.40257C2.30047 6.50473 0.868876 9.18304 0.288891 12.0988C-0.291095 15.0146 0.00657476 18.0369 1.14426 20.7835C2.28194 23.5301 4.20854 25.8777 6.68042 27.5293C9.1523 29.181 12.0584 30.0626 15.0313 30.0626V15.0313H30.0626Z" fill="#FFA800"/>
<path d="M22.6223 33.5098V39.8029H34.4469V45.0939H17.0908V17.0355H34.2465V22.3265H22.6223V28.299H33.2444V33.5098H22.6223Z" fill="white"/>
<path d="M49.1685 24.491C51.8675 24.491 54.1656 25.5198 56.0629 27.5774C57.9869 29.6351 58.9489 32.1336 58.9489 35.073C58.9489 38.0659 57.9869 40.5778 56.0629 42.6087C54.1923 44.6396 51.8942 45.6551 49.1685 45.6551C46.3627 45.6551 44.1982 44.6797 42.675 42.729V53.1106H37.5042V25.0522H42.675V27.4171C44.1982 25.4664 46.3627 24.491 49.1685 24.491ZM44.2383 39.1616C45.2804 40.2037 46.6032 40.7248 48.2065 40.7248C49.8098 40.7248 51.1326 40.2037 52.1748 39.1616C53.2437 38.0927 53.7781 36.7298 53.7781 35.073C53.7781 33.4163 53.2437 32.0668 52.1748 31.0246C51.1326 29.9557 49.8098 29.4213 48.2065 29.4213C46.6032 29.4213 45.2804 29.9557 44.2383 31.0246C43.1961 32.0668 42.675 33.4163 42.675 35.073C42.675 36.7298 43.1961 38.0927 44.2383 39.1616Z" fill="white"/>
<path d="M64.5596 22.6472C63.7045 22.6472 62.9563 22.3399 62.3149 21.7253C61.7003 21.0839 61.393 20.3357 61.393 19.4806C61.393 18.6255 61.7003 17.8773 62.3149 17.2359C62.9563 16.5946 63.7045 16.2739 64.5596 16.2739C65.4414 16.2739 66.1897 16.5946 66.8043 17.2359C67.4456 17.8773 67.7663 18.6255 67.7663 19.4806C67.7663 20.3357 67.4456 21.0839 66.8043 21.7253C66.1897 22.3399 65.4414 22.6472 64.5596 22.6472ZM67.165 45.0939H61.9943V25.0522H67.165V45.0939Z" fill="white"/>
<path d="M86.488 27.4171V25.0522H91.6588V53.1106H86.488V42.729C84.9649 44.6797 82.8004 45.6551 79.9945 45.6551C77.2956 45.6551 74.9841 44.6396 73.0601 42.6087C71.1628 40.5511 70.2142 38.0392 70.2142 35.073C70.2142 32.1336 71.1628 29.6351 73.0601 27.5774C74.9841 25.5198 77.2956 24.491 79.9945 24.491C82.8004 24.491 84.9649 25.4664 86.488 27.4171ZM76.9482 39.1616C78.0438 40.2037 79.3799 40.7248 80.9565 40.7248C82.5599 40.7248 83.8826 40.2037 84.9248 39.1616C85.967 38.0927 86.488 36.7298 86.488 35.073C86.488 33.4163 85.967 32.0668 84.9248 31.0246C83.8826 29.9557 82.5599 29.4213 80.9565 29.4213C79.3532 29.4213 78.0171 29.9557 76.9482 31.0246C75.906 32.0668 75.3849 33.4163 75.3849 35.073C75.3849 36.7298 75.906 38.0927 76.9482 39.1616Z" fill="white"/>
<path d="M109.014 35.8747V25.0522H114.185V45.0939H109.014V42.8492C107.785 44.7198 105.794 45.6551 103.042 45.6551C100.85 45.6551 99.0332 44.9202 97.5902 43.4505C96.1739 41.954 95.4658 39.9231 95.4658 37.3578V25.0522H100.637V36.7165C100.637 38.0259 100.984 39.0413 101.679 39.7628C102.4 40.4843 103.376 40.8451 104.605 40.8451C105.968 40.8451 107.037 40.4309 107.811 39.6025C108.613 38.7474 109.014 37.5048 109.014 35.8747Z" fill="white"/>
<path d="M137.8 37.1975H122.688C123.356 39.7094 125.24 40.9653 128.34 40.9653C130.318 40.9653 131.814 40.2973 132.829 38.9611L136.998 41.3661C135.021 44.2254 132.108 45.6551 128.26 45.6551C124.946 45.6551 122.288 44.653 120.283 42.6488C118.279 40.6446 117.277 38.1194 117.277 35.073C117.277 32.0802 118.266 29.5683 120.243 27.5374C122.194 25.5065 124.733 24.491 127.859 24.491C130.825 24.491 133.244 25.5065 135.114 27.5374C137.038 29.5683 138 32.0802 138 35.073C138 35.6342 137.933 36.3424 137.8 37.1975ZM122.608 33.1891H132.829C132.536 31.8797 131.934 30.8777 131.026 30.1829C130.144 29.4881 129.088 29.1407 127.859 29.1407C126.47 29.1407 125.321 29.5015 124.412 30.223C123.503 30.9177 122.902 31.9065 122.608 33.1891Z" fill="white"/>
</svg>
