<svg width="905" height="258" viewBox="0 0 905 258" fill="none" xmlns="http://www.w3.org/2000/svg">
<path d="M1 76.0522V151.75C1 175.228 1 186.967 3.44544 196.629C10.6536 225.109 32.8914 247.346 61.3712 254.555C71.0333 257 82.7722 257 106.25 257V257C129.728 257 141.467 257 151.129 254.555C179.609 247.346 201.846 225.109 209.055 196.629C211.5 186.967 211.5 175.228 211.5 151.75V47.1662C211.5 21.6693 232.169 1 257.666 1V1C283.163 1 303.832 21.6693 303.832 47.1661V154.916C303.832 175.443 303.832 185.706 305.705 194.209C312.41 224.648 336.184 248.422 366.623 255.127C375.126 257 385.389 257 405.916 257V257C426.443 257 436.706 257 445.209 255.127C475.648 248.422 499.422 224.648 506.127 194.209C508 185.706 508 175.443 508 154.916V47.0841C508 21.6326 528.633 1 554.084 1V1C579.536 1 600.168 21.6326 600.168 47.0841V151.084C600.168 175.183 600.168 187.232 602.744 197.135C610.043 225.205 631.963 247.125 660.033 254.425C669.936 257 681.985 257 706.084 257V257C730.183 257 742.232 257 752.135 254.425C780.205 247.125 802.125 225.205 809.425 197.135C812 187.232 812 175.183 812 151.084V47C812 21.5949 832.595 1 858 1V1C883.405 1 904 21.5949 904 47V141.851" stroke="#BCBCBC" stroke-linecap="round" stroke-dasharray="5 5"/>
</svg>
